<?xml version="1.0" standalone="no"?>
<!DOCTYPE svg PUBLIC "-//W3C//DTD SVG 20010904//EN"
 "http://www.w3.org/TR/2001/REC-SVG-20010904/DTD/svg10.dtd">
<svg version="1.0" xmlns="http://www.w3.org/2000/svg"
 width="1280.000000pt" height="720.000000pt" viewBox="0 0 1280.000000 720.000000"
 preserveAspectRatio="xMidYMid meet">

<g transform="translate(0.000000,720.000000) scale(0.100000,-0.100000)"
fill="#000000" stroke="none">
<path d="M3340 6711 c0 -102 3 -141 13 -144 10 -4 10 -6 0 -6 -10 -1 -13 -664
-13 -3281 l0 -3280 3010 0 c2990 0 3011 0 3050 20 22 11 46 20 54 20 13 0 29
13 101 81 12 10 25 19 31 19 13 0 40 87 53 169 12 76 23 91 48 69 42 -36 78
-22 48 19 -8 10 -14 23 -15 28 0 6 9 -3 20 -20 11 -16 20 -46 19 -65 0 -29 -2
-32 -10 -15 -7 17 -8 17 -6 2 1 -10 7 -19 12 -20 6 -1 12 31 15 72 4 63 2 76
-12 85 -10 6 -18 21 -18 33 0 13 -4 23 -10 23 -5 0 -10 -4 -10 -8 0 -5 -11
-14 -24 -22 -31 -16 -47 -3 -66 55 -10 28 -15 34 -18 21 -2 -10 1 -23 7 -29 6
-6 11 -24 11 -39 0 -26 -3 -28 -36 -28 -22 0 -43 7 -53 18 -9 9 -25 19 -36 20
-11 2 -21 8 -23 13 -2 5 -13 9 -25 9 -19 -1 -18 -3 8 -17 25 -14 27 -18 12
-21 -10 -2 -26 3 -36 12 -10 9 -23 16 -29 16 -7 0 -12 7 -12 15 0 8 -4 15 -9
15 -5 0 -11 9 -14 19 -3 14 -1 18 9 14 8 -3 14 -11 14 -18 0 -20 21 -30 31
-14 13 21 11 29 -6 23 -10 -4 -15 0 -15 11 0 14 6 16 43 10 54 -9 57 -11 57
-40 0 -13 4 -26 8 -29 4 -2 6 11 4 30 l-4 34 60 0 c44 0 66 -5 85 -20 31 -24
49 -26 40 -3 -5 13 -2 15 11 10 10 -4 20 -7 22 -7 2 0 4 -8 5 -17 0 -11 3 -13
6 -5 6 14 33 16 33 2 0 -13 27 -13 35 0 4 6 -8 16 -26 24 -19 8 -27 16 -20 20
6 4 16 4 21 1 17 -11 11 7 -7 20 -15 11 -14 12 10 12 15 0 27 -2 27 -6 0 -4
18 -7 40 -7 33 -1 40 3 40 18 0 11 5 16 10 13 6 -3 10 3 10 14 0 11 -8 22 -17
24 -14 4 -14 5 3 6 12 0 27 7 33 15 13 15 64 29 55 15 -3 -5 8 -9 25 -9 34 0
51 18 30 31 -10 6 -11 9 -1 9 20 0 14 27 -8 33 -11 3 -20 11 -19 19 0 10 2 10
6 1 2 -7 9 -13 14 -13 14 0 11 38 -3 47 -36 22 -52 119 -25 141 20 17 93 26
101 13 4 -6 10 -9 14 -7 7 4 8 -3 15 -73 3 -23 11 -38 28 -47 36 -20 51 -17
47 8 -2 16 -10 23 -27 23 -13 0 -26 7 -28 15 -4 13 -3 13 6 0 9 -11 10 -6 7
23 l-5 38 37 -6 c20 -3 31 -2 25 1 -7 3 -13 12 -13 20 0 11 -7 13 -27 8 -21
-6 -25 -4 -20 8 4 12 -3 15 -34 13 l-40 -2 21 22 c11 12 20 27 20 33 0 21 28
13 35 -9 4 -12 10 -18 14 -13 7 11 42 12 57 2 6 -4 25 -3 42 2 18 4 34 5 37 1
8 -14 89 -1 103 16 11 15 12 15 12 -1 0 -13 5 -16 20 -11 14 4 22 1 26 -10 6
-13 8 -14 15 -3 7 10 9 10 9 1 0 -7 7 -13 15 -13 8 0 15 7 15 15 0 8 -6 14
-12 13 -7 -2 -14 8 -16 21 -2 13 -10 31 -18 38 -16 17 -19 73 -3 73 6 0 17 7
26 16 11 11 19 12 26 5 15 -15 27 -14 27 4 0 8 -7 15 -15 15 -8 0 -15 4 -15 9
0 5 -9 11 -20 14 -17 4 -20 12 -18 47 1 26 -3 44 -11 50 -20 11 -4 30 25 30
36 0 64 18 64 40 0 14 -7 20 -22 21 -22 1 -22 1 2 8 l25 7 -22 19 c-29 25 -29
35 0 35 13 0 32 6 43 14 18 14 18 15 -6 25 -14 5 -19 10 -12 10 6 1 15 2 18 4
7 2 56 -79 79 -131 7 -17 21 -32 29 -32 9 0 16 -4 16 -8 0 -21 113 -110 133
-104 4 1 7 -2 7 -8 0 -5 5 -10 10 -10 23 0 -11 39 -40 45 -16 4 -30 12 -30 19
0 7 -11 18 -24 25 -13 7 -30 28 -39 47 -9 19 -24 34 -32 34 -9 0 -20 12 -25
26 -13 32 -12 37 0 29 6 -3 10 0 10 9 0 8 -5 16 -12 18 -6 2 -8 10 -4 17 6 9
16 7 43 -9 19 -11 39 -18 44 -15 5 4 9 -1 9 -9 0 -18 42 -34 48 -18 2 7 11 8
28 2 25 -10 54 -4 54 11 0 5 -7 9 -15 9 -16 0 -17 2 -20 42 -2 25 0 26 27 21
23 -4 33 -1 44 16 9 12 19 19 24 16 4 -3 10 0 12 7 7 19 28 -1 28 -28 0 -28 6
-30 26 -9 20 19 44 19 44 0 0 -11 11 -15 41 -15 30 0 40 4 36 13 -3 7 2 22 10
32 11 14 14 15 10 4 -6 -19 12 -50 19 -32 4 9 15 8 45 -2 44 -16 139 -18 139
-3 0 5 -4 6 -10 3 -5 -3 -10 -1 -10 4 0 12 -26 15 -33 4 -2 -5 -2 -3 -1 4 4
15 -30 27 -75 28 -21 0 -36 6 -39 15 -3 8 -1 12 3 7 5 -4 18 -1 31 7 19 13 26
13 58 -4 81 -41 90 -41 115 -4 22 32 46 39 35 10 -3 -8 5 -16 20 -20 20 -5 26
-13 26 -35 0 -26 3 -29 48 -34 26 -3 67 -9 91 -13 39 -6 43 -5 39 12 -2 12
-18 24 -43 32 -51 17 -67 31 -60 53 3 9 1 20 -5 24 -5 3 -10 -2 -10 -11 0 -14
-3 -15 -12 -6 -10 10 -10 15 2 22 13 8 13 13 -3 41 -9 17 -15 35 -11 40 3 5 0
9 -7 9 -7 0 -10 3 -7 6 3 3 16 -1 27 -8 15 -9 24 -10 29 -3 9 14 21 13 52 -4
l25 -13 -22 21 c-13 12 -23 28 -23 36 0 15 -6 17 -65 20 -81 5 -81 5 -65 15 8
5 25 10 38 10 18 0 22 6 22 29 0 25 -5 29 -42 37 -33 7 -43 14 -43 29 0 15 7
20 30 22 49 2 52 5 11 12 -55 8 -60 31 -7 31 55 0 64 20 9 22 -65 2 -97 5
-162 18 -50 9 -61 8 -76 -5 -27 -24 -72 -17 -57 10 1 2 -7 10 -17 18 -10 8
-16 19 -12 25 4 6 -6 18 -23 27 -20 10 -28 20 -25 30 7 18 35 20 51 4 12 -12
34 -17 109 -26 29 -3 44 0 53 11 8 9 10 16 5 16 -5 1 9 7 31 15 36 13 278 29
388 25 25 0 36 3 32 10 -4 6 4 10 19 10 14 0 26 4 26 9 0 5 6 11 13 14 6 2 1
2 -13 0 -15 -2 -20 0 -13 4 6 5 11 17 10 28 -2 23 -29 44 -35 27 -2 -6 -9 -9
-17 -6 -7 3 -16 1 -20 -5 -4 -8 -13 -8 -28 1 -12 6 -23 9 -24 7 -2 -7 -63 51
-63 61 0 13 -38 32 -50 25 -10 -6 18 -45 32 -45 9 0 51 -40 46 -44 -11 -7 -95
-30 -102 -28 -5 2 -13 -3 -17 -10 -5 -7 -7 3 -6 25 1 20 6 37 10 37 5 0 5 4 2
10 -3 5 -1 19 5 30 7 13 7 20 0 20 -5 0 -10 -6 -10 -12 -1 -9 -4 -8 -13 2 -7
8 -26 16 -43 16 -33 2 -79 38 -69 54 8 14 -15 24 -28 11 -17 -17 -67 -14 -67
4 0 10 10 15 29 15 16 0 31 5 33 12 3 7 19 11 41 10 38 -3 77 11 77 28 0 4
-31 18 -70 30 -75 23 -96 46 -32 35 20 -3 62 -8 92 -10 30 -2 72 -7 93 -10 23
-4 37 -2 37 4 0 6 -4 11 -9 11 -5 0 -11 9 -14 21 -3 12 -10 18 -16 14 -7 -3
-11 2 -11 14 0 12 -4 21 -9 21 -4 0 -21 12 -36 26 -28 26 -28 27 -9 41 12 9
28 12 44 7 24 -6 159 -8 200 -2 11 1 20 6 20 10 0 4 7 5 16 1 12 -4 15 1 12
23 l-3 29 52 -3 c44 -3 52 -1 47 12 -9 23 -193 78 -237 71 -22 -4 -27 -2 -27
15 0 11 6 20 13 20 8 0 9 2 1 8 -6 4 -15 26 -19 50 -4 23 -12 42 -19 42 -7 0
-95 -21 -196 -46 -101 -25 -222 -52 -269 -60 -47 -8 -148 -30 -223 -49 -75
-19 -153 -35 -173 -35 -22 0 -34 -4 -30 -10 3 -6 -3 -10 -14 -10 -10 0 -66
-11 -123 -24 -57 -13 -132 -28 -168 -34 -36 -6 -110 -20 -165 -31 -77 -16
-101 -18 -107 -8 -6 8 -10 5 -14 -11 -4 -13 -12 -21 -18 -19 -8 3 -11 -105
-11 -397 0 -408 -16 -764 -36 -776 -5 -4 -14 -33 -19 -66 -6 -32 -13 -72 -16
-88 -5 -20 -4 -27 5 -22 6 4 11 14 11 22 0 8 7 17 15 20 18 7 20 61 3 66 -7 3
-6 7 5 11 15 6 17 -1 15 -60 -1 -37 -3 -62 -6 -55 -7 21 -20 13 -30 -18 -13
-37 -47 -32 -39 6 2 13 0 21 -4 18 -5 -3 -9 -14 -9 -24 0 -27 -39 -90 -56 -90
-8 0 -14 -4 -14 -8 0 -5 -12 -15 -27 -22 -16 -8 -34 -19 -42 -24 -7 -6 -19
-11 -27 -12 -8 -1 -24 -12 -37 -23 -12 -11 -33 -30 -46 -41 -26 -21 -42 -97
-23 -109 7 -4 8 -12 2 -21 -8 -13 -10 -12 -10 3 0 11 -8 17 -25 17 -14 0 -25
4 -25 9 0 5 8 7 18 4 13 -3 19 1 19 13 0 9 -9 19 -19 22 -12 3 -17 10 -13 22
3 10 1 21 -5 25 -5 3 -10 13 -10 21 0 8 -4 20 -10 27 -47 58 -60 77 -65 99 -4
14 -15 28 -25 31 -10 3 -21 18 -25 35 -3 17 -12 33 -20 36 -8 3 -24 26 -36 53
-23 51 -66 103 -86 103 -6 0 -33 -11 -60 -24 -26 -13 -73 -31 -103 -40 -65
-21 -102 -33 -150 -51 -19 -7 -71 -18 -114 -24 -44 -6 -93 -18 -109 -26 -17
-8 -36 -15 -44 -15 -8 0 -38 -23 -68 -51 -48 -45 -60 -51 -117 -60 -111 -17
-571 -22 -843 -10 -634 28 -1189 74 -1217 100 -7 6 8 6 127 -3 33 -2 48 -2 32
0 -18 4 -25 10 -20 17 5 9 3 9 -8 0 -8 -6 -27 -9 -42 -6 -22 4 -25 8 -15 15 9
6 6 7 -9 3 -34 -9 -145 -13 -131 -4 7 4 9 11 5 15 -3 4 -13 1 -21 -5 -8 -7
-25 -11 -38 -8 -20 4 -20 4 5 6 15 0 27 5 27 10 0 15 -18 23 -25 11 -4 -6 -11
-8 -16 -4 -10 6 -48 14 -82 17 -10 1 -45 23 -78 49 -39 32 -78 53 -113 62 -29
8 -62 19 -72 25 -11 5 -54 26 -96 46 -43 20 -78 41 -78 46 0 5 -7 9 -16 9 -8
0 -37 14 -64 32 -42 27 -46 33 -33 43 27 20 5 38 -36 31 -20 -3 -31 -2 -25 2
15 9 21 62 10 80 -4 7 -11 10 -16 7 -4 -3 -6 4 -3 15 4 14 0 20 -11 20 -10 0
-16 8 -16 23 0 41 -45 66 -52 29 -2 -10 -6 -13 -10 -6 -4 6 2 21 14 34 18 19
19 24 6 31 -9 5 -13 20 -12 44 3 32 1 35 -12 25 -8 -7 -17 -10 -21 -6 -3 3 -1
6 5 6 7 0 12 5 12 10 0 6 -7 10 -15 10 -18 0 -20 36 -2 43 6 3 3 6 -8 6 -17 1
-17 3 -5 11 11 7 11 10 2 10 -7 0 -10 5 -7 10 3 6 0 10 -8 10 -8 0 -19 17 -26
38 -7 20 -15 43 -17 50 -3 6 -1 12 6 12 6 0 8 -5 4 -12 -4 -7 -3 -8 5 -4 16
10 4 26 -19 26 -13 0 -17 5 -14 15 4 8 2 15 -4 15 -5 0 -12 10 -16 23 -5 17
-8 19 -15 8 -6 -10 -10 -10 -16 -1 -4 7 -3 15 3 19 11 7 -10 56 -25 56 -4 0
-7 9 -6 20 3 20 2 20 -12 1 -8 -10 -12 -22 -10 -26 2 -4 -7 -5 -20 -2 -20 3
-25 0 -25 -17 0 -12 6 -21 15 -21 9 0 20 -12 25 -28 6 -15 15 -35 20 -45 6
-10 8 -28 5 -40 -5 -17 -4 -19 4 -7 9 13 12 13 28 -3 16 -16 16 -17 -8 -17
-31 0 -49 17 -42 38 4 10 2 13 -5 8 -7 -4 -12 -2 -12 4 0 6 -5 8 -11 4 -15 -9
-29 14 -29 47 0 33 -22 79 -37 79 -15 0 -24 52 -19 100 2 19 7 83 11 143 4 59
11 107 15 107 4 0 10 26 13 58 4 31 11 86 16 122 6 36 8 83 5 105 -4 31 -3 36
5 25 10 -13 13 -12 26 4 8 11 15 28 15 39 0 28 34 151 42 155 5 2 8 13 8 24 0
11 4 37 10 57 5 20 14 54 20 77 15 60 35 52 38 -15 7 -153 41 -249 118 -326
13 -13 24 -36 24 -50 0 -24 31 -65 49 -65 5 0 13 -9 16 -20 4 -11 10 -18 15
-15 5 3 27 -12 49 -34 22 -21 42 -36 45 -33 3 3 6 -1 6 -9 1 -8 25 -31 55 -53
31 -22 52 -44 48 -50 -3 -6 -3 -8 2 -4 4 4 40 -20 80 -52 41 -33 81 -60 91
-60 9 0 25 -10 35 -22 24 -27 24 -36 1 -15 -10 10 -25 17 -33 17 -8 0 -20 5
-27 12 -17 17 -26 3 -13 -20 6 -11 16 -43 22 -71 6 -30 16 -51 24 -51 7 0 15
-15 18 -32 17 -109 32 -174 41 -180 6 -4 16 -33 22 -65 17 -87 37 -157 50
-170 7 -7 15 -31 19 -53 4 -22 13 -47 21 -54 7 -8 23 -38 34 -68 28 -72 42
-99 63 -122 9 -11 17 -26 17 -33 0 -7 3 -13 8 -13 4 0 23 -34 42 -75 19 -41
40 -74 47 -75 7 0 17 -9 23 -21 18 -32 72 -79 110 -96 23 -10 92 -18 205 -24
94 -4 247 -13 340 -19 583 -36 1054 -49 1125 -30 111 28 146 54 175 129 10 27
23 48 27 45 4 -3 8 1 8 10 0 8 4 16 9 18 9 3 71 132 85 175 4 12 16 25 27 28
10 4 19 14 19 23 1 9 9 35 20 57 11 22 19 47 20 55 0 9 4 20 9 25 5 6 18 43
28 83 11 40 22 69 26 66 4 -4 7 2 7 14 0 11 7 22 17 24 11 2 21 21 29 53 20
85 58 200 66 203 4 2 8 15 8 28 0 14 6 27 14 30 8 3 18 24 21 47 4 23 15 50
24 61 14 17 12 16 -24 -3 -22 -11 -47 -21 -55 -21 -9 0 -20 -4 -26 -10 -12
-12 -90 -29 -166 -37 -32 -3 -58 -9 -58 -13 0 -4 -13 -10 -30 -12 -22 -3 -30
-1 -30 11 0 11 -4 10 -16 -5 -8 -10 -13 -13 -9 -6 3 6 0 12 -7 12 -10 0 -9 3
2 11 12 9 12 10 -3 5 -10 -3 -21 -6 -23 -6 -3 0 -2 -4 1 -10 3 -6 1 -10 -4
-10 -6 0 -11 7 -11 16 0 11 -6 14 -20 9 -11 -3 -28 -1 -37 5 -13 7 -14 10 -3
8 8 -1 33 1 54 6 l39 7 -28 17 c-21 13 -43 16 -100 12 -55 -4 -71 -2 -68 8 3
6 13 12 23 12 10 0 20 7 24 15 4 10 20 15 52 15 55 0 55 -10 0 -12 -23 -1 -32
-4 -24 -9 7 -5 20 -7 28 -5 8 3 45 7 82 11 51 5 67 10 71 24 9 35 -64 49 -85
17 -4 -7 -15 -6 -32 2 -22 10 -26 9 -26 -3 0 -11 -10 -15 -37 -14 -28 1 -31 3
-13 6 40 7 48 23 11 23 -31 0 -90 -34 -74 -42 5 -3 2 -3 -5 -1 -8 1 -29 3 -49
3 -27 0 -34 3 -29 15 3 8 1 15 -5 15 -6 0 -8 4 -5 9 3 4 18 7 33 5 24 -4 25
-3 8 5 -17 8 -18 10 -2 10 9 1 17 6 17 12 0 6 7 9 15 6 8 -4 17 -2 20 3 7 12
-34 50 -55 50 -9 0 -21 5 -27 11 -17 17 -155 12 -169 -6 -6 -8 -13 -13 -15
-11 -7 7 -227 15 -234 8 -13 -14 -59 -12 -95 4 -32 14 -40 24 -49 58 -6 23
-14 46 -18 51 -29 38 -247 68 -328 45 -55 -15 -61 -34 -7 -23 58 12 211 4 274
-14 57 -17 58 -18 58 -55 0 -31 -4 -38 -20 -38 -15 0 -20 7 -20 28 0 26 -25
62 -43 62 -4 0 -7 -11 -7 -24 0 -13 -7 -27 -16 -30 -13 -5 -14 -1 -9 23 6 27
4 28 -41 35 -78 10 -156 8 -148 -5 8 -13 10 -33 13 -134 2 -38 5 -64 8 -57 7
18 30 15 53 -8 14 -14 29 -19 46 -16 25 5 26 5 9 -14 -23 -25 -35 -25 -79 1
-20 12 -36 17 -36 12 0 -4 -6 1 -12 11 -6 11 -13 62 -16 113 -5 92 -5 94 -28
89 -12 -3 -24 -1 -26 5 -2 7 -12 7 -31 0 -18 -7 -27 -7 -27 0 0 5 8 13 18 16
9 4 27 17 39 30 12 13 32 23 43 23 12 0 18 4 15 11 -5 7 33 9 122 6 143 -5
193 -13 193 -32 0 -23 25 -62 38 -57 6 2 12 13 12 25 0 44 7 46 195 48 309 4
461 22 535 65 14 8 37 20 53 25 15 6 27 15 27 21 0 5 4 7 8 4 5 -3 19 9 32 26
20 28 21 30 4 23 -54 -23 -194 -28 -759 -29 -410 -1 -667 3 -785 12 -354 26
-546 49 -578 69 -13 8 -26 12 -29 10 -7 -8 80 -87 96 -87 8 0 28 -11 45 -24
17 -12 45 -26 61 -29 140 -29 199 -39 329 -57 81 -11 170 -20 196 -20 52 0 83
-8 76 -19 -8 -12 -9 -193 -2 -271 3 -41 3 -69 0 -62 -7 14 -64 17 -64 2 0 -5
-7 -10 -16 -10 -8 0 -13 -3 -11 -7 3 -5 -68 -1 -156 7 -89 8 -154 16 -144 18
20 4 22 13 5 30 -9 9 -9 12 1 12 11 0 11 3 0 16 -8 10 -9 18 -2 22 5 4 15 21
20 37 10 29 12 30 64 28 61 -3 51 12 -16 23 -22 3 -45 10 -51 15 -7 6 -35 12
-63 16 -42 5 -52 3 -57 -12 -7 -17 13 -38 27 -29 4 2 11 -1 15 -7 5 -8 -1 -10
-19 -7 -17 3 -28 0 -32 -10 -7 -20 -3 -23 44 -29 31 -4 41 -10 41 -24 0 -13
-7 -19 -22 -19 l-23 -1 23 -18 c40 -34 28 -41 -55 -36 -43 3 -103 10 -133 15
-30 5 -72 12 -92 15 -21 3 -38 10 -38 15 0 6 -11 10 -25 10 -14 0 -25 5 -25
10 0 6 6 10 13 10 8 0 7 4 -3 11 -11 8 -12 12 -2 16 6 2 10 9 6 14 -3 5 4 9
15 9 12 0 21 5 21 11 0 7 -10 9 -25 5 -15 -4 -25 -2 -25 4 0 6 4 9 9 5 6 -3
11 14 13 37 3 37 6 43 25 42 16 0 23 7 27 29 10 50 -2 73 -44 87 -22 7 -49 21
-60 32 -19 18 -20 18 -35 -14 l-15 -33 5 53 c2 29 11 67 20 84 20 41 19 55 -4
67 -21 12 -37 55 -18 48 7 -2 17 -13 22 -24 9 -17 15 -19 30 -11 16 9 11 14
-41 40 -131 65 -134 70 -54 110 55 28 55 28 270 28 306 0 1667 -28 1904 -40
l198 -9 74 -37 c61 -30 75 -41 84 -70 6 -19 16 -34 21 -34 10 0 12 -53 3 -87
-12 -44 -23 -22 -30 57 -7 80 -7 80 -35 80 -28 0 -29 -2 -29 -45 0 -25 5 -45
10 -45 14 0 12 -39 -3 -54 -7 -8 -23 -17 -35 -20 -21 -7 -41 -50 -29 -63 3 -3
0 -11 -7 -19 -7 -7 -16 -35 -20 -62 -3 -26 -14 -57 -25 -68 -20 -22 -34 -74
-19 -74 5 0 25 7 46 15 20 9 46 15 57 13 11 -1 26 1 33 5 7 5 12 4 12 -2 0 -6
-4 -11 -10 -11 -5 0 -10 -6 -10 -13 0 -17 -84 -99 -111 -110 -11 -4 -10 -6 2
-6 9 -1 26 8 39 19 28 24 44 26 36 4 -3 -9 -2 -12 5 -9 6 4 8 13 5 21 -3 8 -2
14 2 15 45 4 66 11 88 28 15 12 21 21 15 21 -22 0 19 33 75 61 52 25 53 27 36
45 -9 11 -33 28 -52 38 -19 10 -43 28 -52 40 -12 14 -20 17 -25 10 -5 -6 -21
-14 -38 -19 -16 -4 -24 -10 -17 -12 13 -5 7 -23 -8 -23 -8 0 -14 20 -25 96 -5
33 -3 43 10 48 27 10 65 -4 65 -25 0 -37 113 -122 180 -134 62 -11 300 41 300
66 0 5 10 9 23 9 22 1 112 29 133 42 22 14 105 39 122 37 16 -3 82 26 82 36 0
2 -12 0 -26 -5 -27 -11 -27 -7 -6 49 4 10 1 12 -7 7 -9 -6 -9 -3 1 13 7 12 16
21 20 21 5 0 8 5 8 11 0 6 -9 8 -20 4 -13 -4 -20 -2 -20 7 -1 20 -39 -54 -40
-76 0 -11 -3 -16 -7 -13 -3 4 -16 1 -27 -6 -21 -14 -28 -16 -125 -43 -30 -8
-60 -19 -65 -23 -11 -9 -77 -19 -123 -20 -13 -1 -23 -7 -23 -15 0 -9 -17 -16
-49 -20 -27 -4 -52 -12 -54 -19 -3 -7 -6 -5 -6 5 -1 9 11 21 27 26 15 6 20 11
12 13 -8 1 3 5 25 9 33 6 27 7 -35 8 -101 1 -110 2 -110 23 0 9 -16 27 -36 40
-56 34 -79 61 -92 105 -16 56 -15 81 4 88 22 9 24 8 24 -9 0 -10 10 -15 28
-15 19 0 23 -3 13 -9 -13 -9 -7 -31 9 -31 20 0 20 36 1 52 -13 10 -19 23 -15
32 5 14 2 15 -21 6 -16 -6 -40 -18 -54 -26 -25 -14 -30 -13 -109 25 l-83 41
-192 10 c-306 15 -712 30 -844 30 -67 0 -123 4 -125 9 -4 13 -1157 18 -1166 5
-4 -6 -35 -24 -70 -42 -50 -25 -68 -30 -83 -22 -23 13 -26 -2 -4 -20 16 -14
21 -60 6 -60 -5 0 -11 -10 -13 -22 -3 -26 -41 -36 -64 -18 -11 10 -14 10 -14
0 0 -19 -88 -6 -109 16 -28 31 -32 53 -14 81 13 20 14 28 5 31 -6 2 -15 21
-18 43 -4 21 -12 39 -19 39 -12 0 -25 21 -25 39 0 17 50 -2 56 -21 5 -16 8
-18 15 -7 6 10 9 2 9 -23 0 -46 19 -51 21 -5 l2 32 7 -35 7 -35 2 37 c1 32 -6
44 -45 83 -25 25 -50 45 -54 45 -5 0 -10 6 -13 13 -4 9 -7 9 -18 -1 -12 -11
-12 -14 0 -21 9 -6 10 -11 2 -15 -6 -4 -11 -3 -11 3 0 5 -9 13 -20 16 -20 6
-29 45 -10 45 6 0 10 7 10 15 0 13 -18 20 -42 16 -5 0 -8 5 -8 13 0 8 -4 16
-8 18 -4 2 -18 18 -31 36 -12 17 -29 32 -36 32 -8 0 -16 9 -20 19 -3 10 -16
30 -30 43 -30 31 -69 150 -60 186 3 15 9 43 12 62 6 37 36 84 47 73 3 -3 6 -3
6 2 0 4 -10 16 -22 27 l-23 20 27 -7 c23 -6 27 -3 39 29 7 20 19 36 26 36 8 0
22 20 32 44 11 24 31 55 45 69 14 14 26 32 26 39 0 7 14 29 30 48 17 19 33 43
36 53 3 9 9 17 15 17 5 0 21 19 36 42 16 23 36 50 46 60 9 10 17 25 17 33 0 8
4 15 10 15 12 0 55 44 63 64 4 9 11 16 16 16 12 0 37 49 46 90 4 16 10 30 15
30 11 0 45 59 54 94 4 15 11 33 17 39 28 34 61 93 66 118 3 16 9 29 13 29 4 0
10 12 13 28 3 15 17 40 31 56 14 16 28 37 31 47 4 11 10 19 15 19 4 0 10 9 13
21 3 12 10 18 15 15 6 -3 8 2 5 14 -4 14 0 20 11 20 10 0 14 5 10 11 -8 14 16
59 32 59 7 0 14 -3 17 -7 2 -5 3 -3 1 3 -1 7 8 21 22 33 13 11 25 25 25 31 1
5 3 15 4 20 1 6 3 16 4 23 0 7 10 23 21 35 12 12 17 22 13 23 -4 0 1 4 12 8
11 5 20 12 20 17 1 5 18 27 39 49 l38 40 -21 -43 c-12 -24 -31 -52 -41 -62
-11 -11 -20 -24 -20 -29 0 -5 -9 -12 -19 -16 -11 -3 -18 -12 -15 -19 3 -7 -2
-19 -11 -26 -8 -7 -15 -19 -15 -26 0 -8 -8 -22 -17 -32 -10 -10 -23 -27 -29
-38 -7 -10 -21 -19 -32 -18 -12 0 -18 -4 -15 -9 8 -13 -58 -149 -79 -165 -10
-7 -18 -20 -18 -28 0 -8 -4 -14 -10 -14 -5 0 -10 -5 -10 -11 0 -17 -62 -143
-76 -154 -6 -5 -17 -27 -24 -47 -6 -21 -15 -38 -19 -38 -4 0 -21 -26 -37 -57
-15 -32 -32 -59 -36 -61 -4 -2 -10 -19 -14 -38 -3 -19 -10 -37 -15 -40 -5 -3
-9 -20 -9 -38 0 -26 -5 -35 -22 -41 l-23 -6 25 -8 c14 -5 43 -19 65 -31 77
-44 91 -49 200 -59 273 -26 573 -33 1490 -33 995 0 1402 10 1460 37 29 13 51
21 68 24 4 0 30 13 58 27 37 20 51 34 56 55 3 18 10 26 19 22 11 -4 14 6 14
46 0 37 -4 51 -14 51 -10 0 -18 23 -26 73 -7 39 -16 74 -21 77 -4 3 -13 36
-19 74 -6 38 -15 76 -20 86 -5 9 -12 40 -16 69 -4 29 -12 58 -19 64 -6 7 -18
36 -24 65 -7 28 -17 49 -22 46 -5 -3 -9 3 -9 13 0 25 -63 217 -72 221 -4 2 -8
12 -8 22 0 10 -4 22 -10 25 -5 3 -10 17 -10 30 0 13 -4 25 -8 27 -8 3 -42 100
-37 106 7 8 63 -35 73 -57 21 -50 62 -178 62 -193 0 -19 28 -28 55 -18 18 7
18 8 -5 12 -21 5 -20 5 8 7 20 0 31 -3 27 -9 -3 -5 0 -10 8 -10 8 0 18 12 21
26 6 24 10 25 49 19 23 -4 47 -13 53 -21 14 -17 25 -8 17 14 -5 13 -3 14 6 6
7 -7 11 -20 9 -30 -3 -15 -11 -18 -51 -15 -43 2 -47 1 -47 -20 0 -21 1 -22 13
-5 11 14 19 16 47 9 19 -5 36 -16 38 -25 2 -12 -9 -17 -50 -23 -29 -3 -65 -8
-80 -11 -21 -4 -28 -2 -28 9 0 9 8 17 17 19 11 2 1 9 -25 17 -23 8 -44 12 -46
10 -8 -8 16 -103 29 -116 7 -7 16 -32 20 -55 6 -35 9 -39 16 -23 4 11 8 15 8
8 1 -18 89 -5 129 18 18 10 39 19 46 19 8 0 16 9 19 21 4 13 12 20 24 17 15
-3 18 -14 18 -73 l0 -70 -47 -3 c-36 -2 -54 2 -77 19 -23 17 -36 20 -70 14
-46 -8 -48 -13 -30 -95 6 -27 15 -50 20 -50 5 0 9 -9 9 -21 0 -38 22 -109 35
-109 6 0 16 -24 22 -52 6 -29 18 -78 28 -108 9 -30 20 -73 24 -95 5 -22 9 -35
10 -30 3 14 31 -66 31 -87 0 -10 5 -18 10 -18 6 0 10 -8 10 -19 0 -14 10 -20
46 -25 26 -3 64 -6 85 -6 44 0 42 5 43 -111 1 -70 3 -77 31 -103 28 -26 33
-27 95 -21 76 8 142 25 152 39 4 6 10 39 14 74 6 63 7 63 33 55 14 -4 79 -8
144 -8 111 0 120 1 137 23 10 12 23 22 29 22 6 0 11 4 11 9 0 5 3 16 6 24 5
14 -1 14 -53 0 -85 -22 -243 -5 -243 26 0 15 8 16 78 8 75 -8 212 5 212 21 0
4 -62 6 -138 5 -180 -2 -173 -1 -170 -16 6 -26 -13 -22 -137 30 -92 38 -110
49 -108 61 8 35 9 102 3 113 -5 6 -15 9 -24 6 -13 -5 -16 1 -16 28 0 27 4 35
18 35 17 0 56 29 63 47 6 14 131 71 169 78 25 5 49 0 85 -16 28 -12 56 -23 62
-25 7 -1 36 -21 64 -43 29 -23 55 -41 59 -41 5 0 18 -20 30 -44 12 -25 26 -46
32 -48 6 -2 14 -33 18 -68 4 -36 8 -53 9 -37 1 23 5 27 30 27 16 0 31 4 33 8
2 5 46 20 98 34 52 14 181 50 285 80 105 30 224 60 266 66 41 6 104 20 140 32
132 41 322 90 328 84 8 -8 6 -306 -4 -448 -6 -97 -5 -120 6 -127 10 -6 10 -9
2 -9 -20 0 -17 -96 3 -104 23 -9 54 -7 54 3 0 5 19 7 43 4 45 -4 74 8 63 26
-5 7 -20 9 -43 5 -28 -5 -35 -4 -31 7 2 8 19 15 36 17 26 3 34 -1 44 -22 11
-26 13 -26 97 -22 47 2 103 5 124 5 23 1 36 5 32 11 -3 6 1 10 10 10 9 0 13
-4 10 -10 -3 -5 1 -10 9 -10 9 0 16 5 16 10 0 6 7 10 16 10 8 0 12 -4 9 -10
-4 -6 8 -10 29 -10 19 0 37 4 40 8 3 5 65 9 138 9 87 1 134 5 136 12 4 12 82
15 82 3 0 -4 31 -8 70 -9 l70 -1 0 1354 0 1354 -1550 0 c-1233 0 -1550 -3
-1550 -12 0 -21 -44 -66 -75 -78 -42 -16 -77 -5 -73 23 2 16 13 23 45 30 49 9
80 37 42 37 -13 0 -39 -4 -57 -9 -20 -6 -32 -6 -32 0 0 5 -88 9 -211 9 -205 0
-211 -1 -228 -22 l-18 -22 -19 22 -18 22 -1433 0 c-896 0 -1433 -3 -1433 -9 0
-6 5 -13 10 -16 15 -9 -8 -35 -31 -35 -24 0 -32 16 -19 40 l11 20 -946 0
c-833 0 -945 -2 -945 -15 0 -8 -4 -15 -9 -15 -6 0 -18 -13 -27 -29 l-18 -30
-24 20 c-29 22 -72 25 -72 5 0 -8 8 -17 18 -20 9 -3 -8 -4 -39 -2 -38 2 -63 8
-74 20 -10 9 -22 15 -29 13 -12 -4 -35 21 -36 38 0 6 5 3 10 -5 8 -13 10 -12
10 3 0 16 -22 17 -320 17 l-320 0 0 -139z m5730 84 c0 -12 -29 -3 -34 10 -4
13 -2 14 14 5 11 -6 20 -13 20 -15z m-4680 -10 c0 -14 -4 -25 -9 -25 -5 0 -11
-14 -15 -30 -3 -17 -13 -33 -21 -36 -20 -8 -21 -6 -30 33 -5 27 -4 32 8 27 10
-3 22 6 33 25 22 38 34 40 34 6z m1860 -20 c0 -8 -7 -15 -15 -15 -13 0 -14 3
-3 15 16 18 18 18 18 0z m3140 11 c0 -3 -4 -8 -10 -11 -5 -3 -10 -1 -10 4 0 6
5 11 10 11 6 0 10 -2 10 -4z m-4989 -49 c-13 -13 -15 1 -4 30 7 17 8 17 11 -1
2 -10 -1 -23 -7 -29z m1804 14 c0 -8 -8 -19 -17 -25 -22 -13 -41 3 -32 28 8
20 49 18 49 -3z m2774 -3 c-1 -16 -3 -18 -6 -6 -2 9 -12 19 -21 21 -12 3 -10
5 6 6 17 1 22 -4 21 -21z m-2939 -19 c0 -5 -7 -9 -15 -9 -8 0 -15 7 -15 15 0
9 6 12 15 9 8 -4 15 -10 15 -15z m3687 1 c39 0 12 -25 -42 -39 -38 -10 -45
-15 -45 -36 0 -14 9 -30 19 -37 14 -8 16 -14 7 -22 -13 -13 -136 -17 -136 -5
0 5 3 8 8 8 19 -3 33 2 27 11 -3 5 -11 8 -18 6 -7 -1 -9 -1 -4 1 11 7 8 33 -4
33 -6 0 -4 7 5 15 8 8 24 15 35 15 11 0 26 10 32 23 17 31 30 38 63 32 16 -3
40 -5 53 -5z m-5267 -10 c0 -5 -7 -7 -15 -4 -8 4 -15 8 -15 10 0 2 7 4 15 4 8
0 15 -4 15 -10z m4210 6 c0 -2 -7 -6 -15 -10 -8 -3 -15 -1 -15 4 0 6 7 10 15
10 8 0 15 -2 15 -4z m245 -52 c-5 -37 -4 -44 10 -44 15 0 15 -1 1 -16 -9 -8
-16 -20 -16 -25 0 -6 -4 -7 -10 -4 -5 3 -10 29 -10 56 0 31 -4 48 -10 44 -5
-3 -10 1 -10 9 0 9 7 16 15 16 8 0 15 5 15 11 0 5 5 7 11 3 7 -4 9 -22 4 -50z
m-4522 30 c9 -9 -4 -35 -14 -28 -5 3 -9 12 -9 20 0 14 12 19 23 8z m4461 -13
c4 -5 -3 -7 -14 -4 -23 6 -26 13 -6 13 8 0 17 -4 20 -9z m-2614 -87 c0 -21
-17 -17 -23 5 -3 14 -1 18 9 14 8 -3 14 -11 14 -19z m2538 3 c2 -12 -3 -17
-17 -17 -14 0 -21 6 -21 19 0 24 34 22 38 -2z m-5338 -33 c0 -2 -13 -4 -30 -4
-16 0 -30 4 -30 8 0 5 14 7 30 4 17 -2 30 -6 30 -8z m5890 6 c0 -9 -14 -14
-32 -11 -5 0 -8 -2 -9 -6 0 -5 -2 -21 -4 -38 -9 -76 -22 -91 -51 -57 -9 11
-23 18 -30 15 -8 -3 -14 -1 -14 4 0 6 -11 15 -25 21 -20 9 -25 19 -25 47 l0
35 95 0 c57 0 95 -4 95 -10z m296 -67 c-11 -11 -17 4 -9 23 7 18 8 18 11 1 2
-10 1 -21 -2 -24z m94 21 c0 -9 -41 -44 -52 -44 -17 0 -7 26 15 36 27 14 37
16 37 8z m-117 -46 c7 -23 -5 -48 -24 -48 -11 0 -19 4 -19 10 0 6 -10 6 -27
-1 -18 -7 -24 -7 -18 0 6 5 26 13 45 16 41 7 52 15 21 15 -12 0 -19 4 -16 10
9 14 33 12 38 -2z m-410 -38 c23 0 47 -11 47 -21 0 -14 -38 -11 -70 6 -20 10
-30 23 -30 38 l1 22 18 -22 c11 -13 26 -23 34 -23z m306 -22 c0 -38 -1 -40
-10 -19 -8 22 -4 61 7 61 2 0 4 -19 3 -42z m-296 -45 c20 -24 20 -40 0 -35 -7
2 -13 -2 -13 -8 0 -5 -9 -10 -20 -10 -12 0 -20 7 -20 18 0 15 2 15 11 2 8 -12
9 -11 6 5 -2 11 -9 19 -15 18 -7 -2 -12 9 -12 27 0 28 1 29 22 18 12 -7 31
-23 41 -35z m14 5 c-3 -8 -6 -5 -6 6 -1 11 2 17 5 13 3 -3 4 -12 1 -19z m229
-25 c4 -12 10 -23 15 -23 5 0 9 -9 9 -20 0 -13 -7 -20 -20 -20 -13 0 -20 7
-20 20 0 11 -4 20 -10 20 -5 0 -10 11 -10 23 0 15 6 24 15 24 9 0 18 -11 21
-24z m135 -46 c11 3 19 0 19 -6 0 -7 -4 -9 -10 -6 -5 3 -17 -3 -27 -15 -21
-25 -39 -26 -47 -2 -3 9 -8 22 -11 28 -4 7 3 10 20 7 16 -4 25 -1 26 8 1 9 3
8 6 -2 3 -11 11 -15 24 -12z m-84 -114 c-2 -21 -4 -6 -4 32 0 39 2 55 4 38 2
-18 2 -50 0 -70z m107 52 c-4 -8 -12 -15 -20 -15 -7 0 -16 -15 -20 -35 -3 -20
-16 -40 -29 -49 -23 -15 -24 -15 -21 12 2 15 4 39 5 53 1 22 7 28 44 36 23 6
43 11 44 12 1 0 0 -6 -3 -14z m-107 -177 c-3 -8 -6 -5 -6 6 -1 11 2 17 5 13 3
-3 4 -12 1 -19z m-10 -160 c-2 -24 -4 -7 -4 37 0 44 2 63 4 43 2 -21 2 -57 0
-80z m-2437 92 c0 -5 -2 -10 -4 -10 -3 0 -8 5 -11 10 -3 6 -1 10 4 10 6 0 11
-4 11 -10z m1595 -20 c34 -7 29 -8 -37 -8 -43 1 -78 5 -78 9 0 11 62 11 115
-1z m955 -46 c0 -2 -11 -4 -25 -4 -14 0 -25 4 -25 9 0 4 11 6 25 3 14 -2 25
-6 25 -8z m-170 -24 c0 -5 -4 -10 -10 -10 -5 0 -10 5 -10 10 0 6 5 10 10 10 6
0 10 -4 10 -10z m600 -32 c-19 -5 -43 -10 -53 -11 -18 -1 -18 -2 0 -15 16 -13
15 -14 -11 -8 -18 5 -32 3 -36 -5 -4 -6 -13 -8 -19 -5 -7 5 -1 16 17 31 22 20
37 24 82 24 53 -1 54 -1 20 -11z m-1802 -15 c-10 -2 -26 -2 -35 0 -10 3 -2 5
17 5 19 0 27 -2 18 -5z m1149 -15 c-3 -8 -6 -5 -6 6 -1 11 2 17 5 13 3 -3 4
-12 1 -19z m130 0 c-3 -8 -6 -5 -6 6 -1 11 2 17 5 13 3 -3 4 -12 1 -19z m180
-15 c-3 -10 -5 -4 -5 12 0 17 2 24 5 18 2 -7 2 -21 0 -30z m-1547 18 c0 -5 18
-12 40 -16 26 -4 44 -14 51 -27 11 -21 10 -21 -74 -15 -85 7 -122 2 -112 -13
6 -10 -13 -17 -76 -25 -49 -7 -75 8 -63 38 7 18 34 26 94 28 41 1 116 15 97
18 -5 0 -5 6 -2 11 8 13 45 13 45 1z m-515 -10 c-14 -12 -107 -31 -155 -31
-28 0 -40 4 -40 14 0 11 15 16 53 19 110 7 151 7 142 -2z m1862 -68 c-2 -16
-4 -3 -4 27 0 30 2 43 4 28 2 -16 2 -40 0 -55z m753 71 c-25 -7 -243 -44 -273
-47 -15 -2 -24 0 -19 5 11 11 217 46 267 46 22 0 33 -2 25 -4z m-354 -30 c-4
-9 -9 -15 -11 -12 -3 3 -3 13 1 22 4 9 9 15 11 12 3 -3 3 -13 -1 -22z m-6 -54
c0 -5 -4 -10 -10 -10 -5 0 -10 5 -10 10 0 6 5 10 10 10 6 0 10 -4 10 -10z
m-2557 -47 c-13 -2 -33 -2 -45 0 -13 2 -3 4 22 4 25 0 35 -2 23 -4z m525 -200
c-2 -9 -15 -20 -30 -24 -23 -6 -28 -4 -28 10 0 24 9 31 37 31 18 0 24 -5 21
-17z m519 3 c3 -3 -10 -6 -30 -6 -25 0 -37 -5 -37 -14 0 -17 -49 -27 -72 -15
-9 5 -32 9 -50 10 -27 0 -30 2 -13 9 11 5 38 9 60 9 22 1 46 5 53 10 15 9 79
7 89 -3z m-1585 -18 c-7 -7 -12 -8 -12 -2 0 14 12 26 19 19 2 -3 -1 -11 -7
-17z m-606 -14 c11 4 14 -7 14 -54 0 -47 -3 -60 -15 -60 -11 0 -15 12 -15 48
0 26 -2 56 -4 67 -2 11 -1 14 1 7 3 -8 11 -11 19 -8z m1912 19 c-10 -2 -26 -2
-35 0 -10 3 -2 5 17 5 19 0 27 -2 18 -5z m262 -60 c0 -16 -8 -20 -53 -28 -35
-7 -37 -6 -37 18 0 23 3 24 45 23 28 0 45 -5 45 -13z m-60 -47 c0 -2 -7 -9
-15 -16 -12 -10 -15 -10 -15 4 0 9 7 16 15 16 8 0 15 -2 15 -4z m650 -46 c0
-5 -4 -10 -9 -10 -6 0 -13 5 -16 10 -3 6 1 10 9 10 9 0 16 -4 16 -10z m800
-20 c11 -7 7 -10 -18 -10 -20 0 -31 4 -27 10 8 13 26 13 45 0z m8 -67 c3 -42
-11 -83 -28 -83 -5 0 -7 7 -4 15 5 11 -3 17 -25 21 -26 6 -31 11 -31 35 0 27
3 29 43 30 29 2 34 3 15 6 -16 2 -28 9 -28 14 0 6 12 9 28 7 24 -3 27 -8 30
-45z m-2500 21 c34 -10 26 -24 -13 -24 -19 0 -35 -4 -35 -10 0 -5 -7 -10 -15
-10 -8 0 -15 9 -15 19 0 28 31 37 78 25z m20 -61 c-2 -9 -14 -18 -28 -19 -14
-2 -35 -6 -47 -9 -18 -4 -23 -1 -23 16 0 19 4 21 33 16 19 -3 40 -1 48 4 19
12 21 11 17 -8z m-1055 -40 c-7 -2 -9 -11 -6 -19 3 -8 0 -14 -6 -14 -15 0 -14
37 2 43 6 2 14 2 17 -1 3 -2 0 -7 -7 -9z m1033 -37 c-4 -12 -9 -33 -13 -49 -9
-42 -73 -51 -73 -10 0 12 7 14 31 9 27 -5 28 -4 15 9 -8 8 -22 15 -30 15 -9 0
-16 4 -16 9 0 19 27 36 59 37 29 1 32 -1 27 -20z m-766 -10 c0 -2 -7 -7 -16
-10 -8 -3 -12 -2 -9 4 6 10 25 14 25 6z m-243 -22 c-3 -3 -12 -4 -19 -1 -8 3
-5 6 6 6 11 1 17 -2 13 -5z m4503 -48 c0 -19 5 -36 11 -38 16 -5 -72 -7 -108
-2 -27 4 -33 9 -33 29 0 17 7 26 23 29 12 3 31 7 42 9 56 12 65 9 65 -27z
m-3520 -35 c0 -10 -24 -21 -46 -21 -8 0 -14 7 -14 15 0 10 10 15 30 15 17 0
30 -4 30 -9z m3507 -27 c-3 -3 -12 -4 -19 -1 -8 3 -5 6 6 6 11 1 17 -2 13 -5z
m-4376 -52 c-7 -2 -18 1 -23 6 -8 8 -4 9 13 5 13 -4 18 -8 10 -11z m5029 -27
c0 -9 -9 -15 -25 -15 -24 0 -32 10 -18 23 12 13 43 7 43 -8z m-5485 -183 c17
-9 32 -16 35 -17 19 -2 110 -83 110 -97 0 -10 5 -18 11 -18 20 0 -3 -20 -47
-40 -24 -11 -44 -25 -44 -31 0 -15 -26 -39 -34 -32 -3 4 -6 -1 -6 -10 0 -9
-15 -24 -32 -33 -36 -18 -70 -49 -62 -57 7 -7 -161 -15 -210 -10 -25 3 -43 9
-41 14 3 4 -14 12 -37 16 -29 6 13 8 126 6 197 -3 217 13 33 26 -110 7 -118 9
-142 35 -15 17 -32 26 -41 22 -12 -5 -14 1 -8 32 12 65 34 96 93 126 18 10 34
23 37 30 5 13 103 51 154 59 33 5 68 -2 105 -21z m-1315 -18 c57 -21 189 -52
270 -63 42 -6 92 -17 112 -25 20 -9 79 -27 130 -41 51 -13 144 -40 207 -60 62
-19 122 -35 132 -35 11 0 19 -4 19 -10 0 -5 11 -10 25 -10 16 0 25 -6 25 -15
0 -8 -4 -15 -10 -15 -5 0 -10 -13 -10 -30 0 -16 5 -30 10 -30 6 0 10 -8 10
-17 1 -20 33 -63 48 -63 18 0 22 -30 4 -31 -10 0 -12 -3 -4 -6 8 -3 12 -33 12
-99 0 -91 -3 -100 -32 -95 -13 2 -4 -23 12 -36 12 -10 8 -10 -20 0 -19 7 -41
18 -48 25 -7 6 -19 12 -27 12 -18 0 -209 64 -297 100 -40 17 -97 37 -125 45
-37 11 -53 21 -53 33 -1 49 -64 141 -97 142 -7 0 -13 4 -13 9 0 10 -44 41 -68
47 -115 29 -198 28 -222 -1 -7 -8 -19 -15 -26 -15 -8 0 -14 -8 -14 -18 0 -28
-56 -17 -64 12 -8 28 -7 265 0 294 6 20 11 22 43 16 20 -4 52 -13 71 -20z
m1480 -24 c0 -5 -2 -10 -4 -10 -3 0 -8 5 -11 10 -3 6 -1 10 4 10 6 0 11 -4 11
-10z m-1337 -268 c9 -8 17 -21 17 -29 0 -7 5 -13 10 -13 6 0 10 -5 10 -11 0
-6 -9 -8 -22 -3 -25 8 -48 28 -48 43 0 5 -26 13 -57 17 -34 4 -51 9 -41 13 30
10 112 0 131 -17z m-217 -102 c8 0 17 -7 20 -15 4 -8 13 -15 21 -15 9 0 24
-10 35 -22 10 -12 31 -23 47 -24 15 -1 43 -9 61 -19 65 -34 149 -55 207 -53
42 1 79 -6 133 -26 41 -15 95 -32 120 -38 25 -6 49 -14 54 -19 6 -5 20 -9 32
-9 13 0 26 -4 29 -10 3 -5 15 -10 26 -10 10 0 19 -4 19 -9 0 -5 8 -11 18 -14
43 -13 186 -68 196 -75 6 -5 31 -14 56 -21 42 -12 108 -56 98 -67 -3 -2 -17 0
-32 5 -17 7 -26 7 -26 1 0 -6 -3 -9 -7 -9 -33 5 -53 -3 -53 -22 0 -14 -5 -19
-17 -17 -10 2 -17 9 -16 15 2 8 -7 8 -32 0 -19 -5 -32 -14 -29 -19 3 -4 -13
-8 -36 -8 -27 0 -39 -4 -35 -11 4 -6 -2 -13 -14 -16 -12 -3 -21 -9 -21 -13 0
-4 -18 -7 -40 -7 -22 0 -40 4 -40 8 0 5 -7 9 -15 9 -9 0 -18 7 -21 15 -4 8
-14 15 -24 15 -29 0 -50 11 -50 26 0 8 -10 14 -25 14 -16 0 -25 -6 -25 -16 0
-11 -8 -14 -32 -12 -18 2 -33 8 -32 13 2 16 -56 46 -77 40 -14 -5 -19 -1 -19
14 0 12 -5 21 -11 21 -5 0 -7 4 -4 10 7 11 -39 25 -54 16 -19 -12 -61 5 -61
25 0 25 -16 24 -23 -1 -5 -21 -37 -28 -37 -9 0 6 7 9 15 5 9 -3 15 0 15 9 0 9
-10 15 -25 15 -18 0 -23 4 -19 15 4 9 -4 25 -20 40 -32 30 -83 33 -102 8 -13
-17 -13 -17 -14 0 0 9 4 17 9 17 6 0 9 9 8 20 -1 14 -6 18 -19 14 -12 -3 -17
-1 -16 6 2 7 -3 15 -11 18 -8 2 -11 0 -7 -6 3 -5 -1 -12 -9 -16 -18 -6 -19 -1
-4 25 6 12 17 18 25 15 8 -3 14 -1 14 3 0 5 -4 11 -10 13 -5 2 -11 14 -13 28
-4 28 -31 38 -53 19 -13 -10 -17 -10 -25 2 -5 8 -9 21 -10 29 0 8 -5 4 -9 -10
-6 -18 -8 -4 -8 45 0 39 2 64 5 58 2 -7 11 -13 19 -13z m299 0 c3 -6 -1 -7 -9
-4 -18 7 -21 14 -7 14 6 0 13 -4 16 -10z m129 -7 c4 -11 1 -11 -14 -3 -24 13
-25 17 -5 17 8 0 16 -6 19 -14z m7 -50 c12 -15 12 -16 -4 -10 -10 4 -23 7 -28
7 -5 0 -9 5 -9 10 0 16 26 12 41 -7z m-377 -115 c-3 -4 -9 -8 -15 -8 -5 0 -9
4 -9 8 0 5 7 9 15 9 8 0 12 -4 9 -9z m1093 -330 c-3 -8 -6 -5 -6 6 -1 11 2 17
5 13 3 -3 4 -12 1 -19z m163 -340 c0 -7 7 -26 15 -41 8 -15 10 -25 5 -22 -6 4
-11 -4 -11 -17 -1 -18 -2 -19 -6 -5 -3 10 -16 22 -29 27 -13 5 -24 14 -24 20
0 6 9 6 25 0 17 -6 25 -6 25 1 0 6 -9 13 -20 16 -11 3 -20 12 -20 19 0 8 9 14
20 14 11 0 20 -6 20 -12z m-40 -78 c0 -11 6 -20 14 -20 8 0 17 -7 20 -16 3 -8
10 -12 16 -9 5 3 10 -1 10 -10 0 -9 -4 -13 -10 -10 -5 3 -10 -3 -10 -14 0 -14
5 -19 15 -15 8 4 15 10 15 14 0 4 11 10 25 12 20 4 25 1 24 -16 0 -11 -3 -16
-5 -9 -7 16 -60 -15 -73 -44 -10 -21 -9 -21 19 -5 33 19 55 8 26 -13 -10 -8
-24 -25 -32 -39 -12 -25 -12 -25 7 -16 15 9 23 7 37 -6 16 -17 16 -18 -2 -11
-11 5 -22 3 -26 -4 -5 -7 -19 -9 -38 -4 -30 6 -31 8 -37 83 -4 42 -11 96 -15
119 -4 23 -5 45 -2 48 11 11 22 4 22 -15z m-84 -77 c-10 -10 -56 8 -56 21 0
12 5 12 31 -1 16 -8 28 -17 25 -20z m-1109 -100 c-2 -21 -4 -6 -4 32 0 39 2
55 4 38 2 -18 2 -50 0 -70z m419 -118 c-11 -8 -14 -15 -8 -15 7 0 12 -7 12
-16 0 -13 -3 -14 -15 -4 -8 7 -28 10 -45 8 -16 -3 -30 -1 -30 4 0 4 12 8 28 8
19 0 23 3 13 9 -11 7 -10 10 5 14 10 2 28 5 39 6 20 0 20 0 1 -14z m43 -12 c1
15 4 15 23 5 12 -7 29 -19 36 -26 8 -7 27 -16 43 -19 39 -8 37 -23 -3 -23 -28
-1 -30 -2 -15 -11 17 -10 35 -8 84 7 17 5 17 5 1 -6 -21 -13 -23 -27 -5 -33
26 -9 -21 2 -78 19 -33 9 -65 23 -71 30 -6 8 -16 14 -23 14 -6 0 -11 14 -10
33 0 27 2 29 9 12 7 -17 9 -18 9 -2z m-60 -39 c13 -12 -8 -10 -29 2 l-25 15
25 -7 c14 -3 27 -8 29 -10z m26 -14 c3 -5 1 -10 -4 -10 -6 0 -11 5 -11 10 0 6
2 10 4 10 3 0 8 -4 11 -10z m255 -30 c0 10 7 8 25 -10 13 -14 31 -31 40 -38
24 -20 18 -31 -10 -19 -14 7 -25 15 -25 20 0 4 -7 7 -16 7 -21 0 -47 27 -38
41 4 8 9 7 15 -2 7 -12 9 -11 9 1z m920 -34 c0 -2 -11 -6 -25 -8 -13 -3 -22
-1 -19 3 5 9 44 13 44 5z m-800 -29 c0 -8 -7 -14 -15 -14 -11 0 -12 4 -4 14 6
7 13 13 15 13 2 0 4 -6 4 -13z m864 -12 c-4 -8 -11 -15 -18 -15 -6 0 -16 -8
-23 -19 -6 -10 -23 -21 -37 -23 -20 -4 -26 -1 -26 13 0 11 7 19 18 19 9 0 31
9 47 20 36 24 46 25 39 5z m2816 -109 c0 -2 -7 -6 -15 -10 -8 -3 -15 -1 -15 4
0 6 7 10 15 10 8 0 15 -2 15 -4z m-2991 -129 c-2 -2 -17 -7 -34 -11 l-30 -6
24 20 c17 14 27 18 34 11 6 -6 9 -12 6 -14z m1198 -109 c-2 -24 -4 -7 -4 37 0
44 2 63 4 43 2 -21 2 -57 0 -80z m63 -3 c0 -70 -4 -115 -10 -115 -6 0 -10 45
-10 115 0 70 4 115 10 115 6 0 10 -45 10 -115z m-1275 85 c-3 -5 -12 -10 -18
-10 -7 0 -6 4 3 10 19 12 23 12 15 0z m819 -39 c4 -5 -3 -7 -14 -4 -23 6 -26
13 -6 13 8 0 17 -4 20 -9z m706 -36 c0 -8 -4 -15 -10 -15 -5 0 -10 7 -10 15 0
8 5 15 10 15 6 0 10 -7 10 -15z m123 -93 c-5 -88 -8 -102 -23 -102 -10 0 -20
-10 -23 -22 -4 -12 -9 -19 -12 -16 -4 3 -2 15 4 26 6 12 11 59 11 106 0 79 2
86 20 86 12 0 20 7 20 17 0 9 2 14 5 12 2 -3 2 -51 -2 -107z m-97 -22 c-6
-105 -5 -120 8 -120 19 0 21 -26 4 -32 -7 -2 -63 -1 -125 2 -106 6 -114 8
-138 34 -14 16 -24 31 -20 34 3 3 12 -4 21 -16 12 -17 25 -22 60 -22 24 0 44
-4 44 -10 0 -6 28 -10 65 -10 l66 0 -3 33 c-4 41 12 227 19 227 3 0 3 -54 -1
-120z m284 101 c0 -9 -98 -27 -127 -24 -14 1 -18 -13 -5 -21 4 -2 41 -1 82 4
41 5 76 7 78 5 5 -5 -26 -60 -32 -57 -15 6 -56 1 -56 -7 0 -5 14 -7 30 -5 17
3 30 1 30 -5 0 -7 23 -11 57 -11 31 0 54 -3 50 -6 -3 -3 -50 -6 -104 -6 -54 0
-101 -4 -104 -10 -3 -5 -16 -5 -32 1 -25 10 -27 9 -27 -17 0 -15 -4 -33 -9
-40 -12 -20 -1 138 12 170 10 25 17 27 72 31 33 2 66 4 73 5 6 1 12 -2 12 -7z
m195 -11 c-3 -5 -31 -10 -61 -10 -34 0 -53 4 -49 10 3 6 31 10 61 10 34 0 53
-4 49 -10z m205 -10 c0 -15 -7 -20 -27 -21 -23 0 -24 -2 -10 -8 17 -6 17 -9 4
-19 -11 -9 -22 -10 -42 -2 -15 6 -37 8 -48 4 -15 -5 -19 -3 -14 9 3 9 1 18 -6
20 -27 9 8 22 64 23 33 1 63 4 66 8 10 10 13 7 13 -14z m-210 -28 c25 2 40 -1
40 -8 0 -6 -24 -12 -59 -13 -56 -2 -59 -1 -54 19 4 16 8 18 19 9 8 -6 32 -9
54 -7z m3304 -8 c23 -9 8 -31 -20 -28 -33 3 -42 13 -24 24 18 11 23 12 44 4z
m-2804 -28 c0 -3 -4 -8 -10 -11 -5 -3 -10 -1 -10 4 0 6 5 11 10 11 6 0 10 -2
10 -4z m-495 -46 c-3 -5 -15 -10 -26 -10 -10 0 -19 5 -19 10 0 6 12 10 26 10
14 0 23 -4 19 -10z m-4109 -31 c1 -25 -1 -28 -8 -15 -5 10 -7 24 -4 32 8 21
11 17 12 -17z m3477 -6 c-7 -3 -13 -13 -13 -24 0 -10 -4 -19 -10 -19 -14 0
-12 38 3 55 8 9 15 10 22 3 7 -7 6 -12 -2 -15z m-553 2 c0 -8 -2 -15 -4 -15
-2 0 -6 7 -10 15 -3 8 -1 15 4 15 6 0 10 -7 10 -15z m-167 -31 c-3 -8 1 -14
11 -14 10 0 13 6 10 15 -9 22 9 18 30 -7 l18 -21 -76 6 c-71 5 -112 20 -102
36 2 3 29 4 59 3 43 -3 54 -7 50 -18z m132 -14 c-3 -5 -16 -10 -28 -10 -18 0
-19 2 -7 10 20 13 43 13 35 0z m363 -6 c40 -8 25 -30 -23 -32 -37 -1 -45 2
-46 16 0 15 -1 15 -8 -2 -7 -18 -8 -18 -25 -1 -31 31 7 38 102 19z m-3130 -1
c-10 -2 -26 -2 -35 0 -10 3 -2 5 17 5 19 0 27 -2 18 -5z m3002 -18 c0 -9 -6
-12 -15 -9 -8 4 -15 10 -15 15 0 5 7 9 15 9 8 0 15 -7 15 -15z m203 -12 c-7
-2 -21 -2 -30 0 -10 3 -4 5 12 5 17 0 24 -2 18 -5z m4227 -19 c0 -9 -7 -14
-17 -12 -25 5 -28 28 -4 28 12 0 21 -6 21 -16z m-3520 -14 c18 -12 -348 -14
-366 -2 -7 4 70 8 170 10 108 1 187 -2 196 -8z m3432 -21 c-2 -14 3 -15 38 -6
48 13 56 7 40 -30 -11 -24 -18 -28 -41 -25 -15 2 -37 17 -50 33 -15 19 -25 26
-29 18 -5 -7 -17 -8 -30 -4 l-23 7 24 14 c32 18 75 14 71 -7z m-6095 -71 c-2
-13 -4 -3 -4 22 0 25 2 35 4 23 2 -13 2 -33 0 -45z m5953 -70 c10 -6 6 -7 -15
-3 -16 4 -34 11 -40 17 -12 12 31 1 55 -14z m-175 -98 l20 -9 -20 0 c-11 0
-29 4 -40 9 l-20 9 20 0 c11 0 29 -4 40 -9z m-5595 -60 c0 -5 -2 -10 -4 -10
-3 0 -8 5 -11 10 -3 6 -1 10 4 10 6 0 11 -4 11 -10z m5715 0 c3 -5 1 -10 -4
-10 -6 0 -11 5 -11 10 0 6 2 10 4 10 3 0 8 -4 11 -10z m-55 -20 c0 -5 -5 -10
-11 -10 -5 0 -7 5 -4 10 3 6 8 10 11 10 2 0 4 -4 4 -10z m-6273 -6 c-3 -3 -12
-4 -19 -1 -8 3 -5 6 6 6 11 1 17 -2 13 -5z m703 -40 c0 -24 -1 -24 -17 -9 -14
14 -14 18 -2 26 19 12 19 12 19 -17z m33 18 c-7 -5 -9 -13 -3 -21 4 -8 6 -21
3 -28 -5 -12 -7 -12 -14 -1 -15 24 -10 58 9 58 11 0 13 -3 5 -8z m-82 -89 c-9
-15 -10 -13 -11 12 0 17 4 41 8 55 6 23 7 21 10 -12 2 -21 -1 -46 -7 -55z
m5794 47 c6 -10 -6 -14 -37 -11 -10 1 -18 -3 -18 -8 0 -6 7 -11 15 -11 8 0 12
-6 9 -13 -3 -8 2 -14 11 -14 10 0 13 6 10 17 -8 24 41 33 77 14 l28 -15 -33
-34 c-38 -39 -77 -47 -77 -15 0 12 -9 22 -22 25 -29 7 -54 55 -35 67 17 11 65
10 72 -2z m-5738 -42 c-3 -8 -6 -5 -6 6 -1 11 2 17 5 13 3 -3 4 -12 1 -19z
m1743 -28 c402 -10 749 -30 888 -52 l72 -11 0 -238 c0 -185 -3 -239 -12 -238
-7 0 -44 7 -83 14 l-70 13 62 1 61 1 7 106 c8 110 -1 313 -14 327 -12 12 -339
36 -642 47 -314 11 -898 13 -923 4 -12 -5 -16 -21 -16 -70 0 -36 4 -64 10 -64
6 0 10 -49 10 -127 0 -71 4 -134 9 -142 8 -12 82 -16 423 -22 395 -7 501 -13
828 -41 138 -12 141 -13 66 -16 -44 -2 -161 4 -260 13 -101 9 -374 20 -616 25
-239 4 -443 11 -452 15 -12 5 -18 18 -18 39 -1 17 -5 116 -10 220 -5 104 -7
193 -4 198 7 11 186 10 684 -2z m260 -51 c157 -6 366 -18 465 -27 l180 -17 3
-202 c2 -143 -1 -203 -9 -203 -6 0 -52 4 -102 10 -380 40 -558 50 -1010 59
-230 5 -420 10 -421 12 -2 2 -6 88 -9 192 l-6 187 312 0 c171 0 440 -5 597
-11z m3780 -99 c0 -5 -5 -10 -11 -10 -5 0 -7 5 -4 10 3 6 8 10 11 10 2 0 4 -4
4 -10z m-5940 -27 c0 -13 3 -14 8 -5 6 8 15 0 31 -28 12 -22 27 -38 32 -35 5
4 9 0 9 -7 0 -8 9 -21 20 -31 11 -9 20 -24 20 -32 0 -8 7 -15 15 -15 8 0 15
-4 15 -10 0 -5 16 -27 35 -47 38 -40 44 -73 19 -94 -14 -11 -21 -7 -52 28 -21
23 -50 57 -67 75 -16 18 -38 47 -49 63 -10 17 -24 34 -32 38 -16 9 -38 83 -30
103 8 20 26 17 26 -3z m137 -29 c-2 -13 -1 -21 3 -19 4 2 7 -9 7 -25 0 -37
-19 -39 -47 -3 -25 31 -23 69 3 67 9 -1 17 2 17 8 0 5 5 6 11 2 6 -3 9 -17 6
-30z m5200 -48 c13 -12 23 -29 23 -38 0 -20 -15 -24 -25 -8 -3 6 -16 10 -29
10 -34 0 -60 23 -52 47 8 25 50 20 83 -11z m759 20 c11 -8 36 -19 55 -24 l34
-10 -36 -1 c-19 -1 -44 6 -55 14 -10 8 -28 15 -39 15 -17 0 -17 2 -5 10 20 13
22 12 46 -4z m-7569 -32 c-3 -3 -12 -4 -19 -1 -8 3 -5 6 6 6 11 1 17 -2 13 -5z
m6849 -61 c-10 -10 -19 5 -10 18 6 11 8 11 12 0 2 -7 1 -15 -2 -18z m-316 -83
c0 -5 -4 -10 -10 -10 -5 0 -10 5 -10 10 0 6 5 10 10 10 6 0 10 -4 10 -10z
m-4125 -128 c-3 -3 -11 0 -18 7 -9 10 -8 11 6 5 10 -3 15 -9 12 -12z m3685
-17 c0 -8 -4 -15 -10 -15 -5 0 -12 -16 -16 -35 -6 -35 -29 -63 -41 -51 -3 3
-1 6 5 6 6 0 18 25 27 55 14 51 35 74 35 40z m198 -7 c12 -4 22 -2 22 2 0 14
41 -2 53 -21 7 -12 23 -19 41 -19 28 0 29 1 10 14 -18 14 -18 15 4 13 12 -1
25 -9 28 -19 3 -10 10 -18 15 -18 5 0 9 -4 9 -10 0 -5 -7 -10 -15 -10 -7 0
-18 -8 -24 -17 -9 -17 -11 -17 -28 -1 -52 49 -64 58 -78 58 -24 0 -75 29 -75
43 0 8 3 9 8 1 4 -6 17 -13 30 -16z m-38 -103 c0 -5 -5 -3 -10 5 -5 8 -10 20
-10 25 0 6 5 3 10 -5 5 -8 10 -19 10 -25z m203 -24 c-9 -12 -23 18 -16 35 6
17 8 17 13 -6 4 -14 5 -27 3 -29z m-150 -27 c-3 -8 0 -14 7 -14 6 0 8 -5 5
-11 -5 -6 -12 -4 -20 8 -7 10 -11 21 -9 25 3 4 -1 5 -9 2 -8 -3 -18 0 -23 7
-4 7 -3 10 4 5 6 -3 14 -2 17 4 10 16 35 -8 28 -26z m66 5 c-9 -5 -15 -4 -18
2 -2 6 3 15 10 20 9 5 15 4 18 -2 2 -6 -3 -15 -10 -20z m-324 -8 c-7 -22 -25
-29 -25 -11 0 12 23 40 28 35 2 -2 1 -13 -3 -24z m-75 -2 c0 -24 -23 -21 -28
4 -2 10 3 17 12 17 10 0 16 -9 16 -21z m394 -32 c-3 -9 -14 -15 -25 -14 -25 2
-25 17 1 17 11 0 20 5 20 12 0 6 2 9 5 6 3 -3 3 -12 -1 -21z m126 -7 c0 -5 -2
-10 -4 -10 -3 0 -8 5 -11 10 -3 6 -1 10 4 10 6 0 11 -4 11 -10z m-643 -6 c-3
-3 -12 -4 -19 -1 -8 3 -5 6 6 6 11 1 17 -2 13 -5z m-225 -96 c-3 -12 -7 -17
-10 -10 -2 7 -9 10 -15 6 -7 -3 -3 2 7 10 25 20 25 20 18 -6z m-5466 -15 c-9
-10 -66 -13 -66 -4 0 4 16 8 36 9 20 1 34 -2 30 -5z m2254 -3 c36 -5 110 -12
165 -15 55 -4 199 -15 320 -26 521 -45 1129 -71 1665 -68 229 0 375 -3 391 -9
34 -14 46 -52 16 -50 -12 0 -65 -7 -117 -16 -140 -26 -394 -54 -543 -62 -73
-4 -137 -11 -144 -16 -7 -6 -14 -4 -20 5 -24 40 -53 46 -313 61 -140 9 -282
20 -315 25 -33 6 -161 12 -285 15 -189 5 -230 4 -254 -9 -36 -19 -69 -20 -171
-5 -138 20 -411 88 -440 110 -5 4 -25 10 -44 14 -47 8 -64 24 -48 41 14 17 49
18 137 5z m3134 -5 c-7 -17 -20 -20 -28 -6 -7 10 3 21 20 21 8 0 11 -6 8 -15z
m-3299 -5 c3 -5 1 -10 -4 -10 -6 0 -11 5 -11 10 0 6 2 10 4 10 3 0 8 -4 11
-10z m-2160 -21 c11 -17 0 -20 -21 -4 -17 13 -17 14 -2 15 9 0 20 -5 23 -11z
m55 7 c0 -2 -7 -7 -16 -10 -8 -3 -12 -2 -9 4 6 10 25 14 25 6z m5463 -12 c-4
-12 -14 -14 -34 -10 -16 3 -29 1 -29 -4 0 -6 -8 -10 -17 -10 -27 0 0 21 39 30
48 11 48 11 41 -6z m70 -4 c-5 -19 -23 -29 -23 -12 0 7 20 32 26 32 1 0 0 -9
-3 -20z m-233 -5 c0 -3 -16 -11 -36 -20 -32 -13 -34 -16 -22 -37 6 -13 13 -39
14 -58 1 -19 -1 -27 -3 -17 -3 11 -10 16 -19 13 -9 -3 -12 -1 -9 4 3 6 -1 10
-9 10 -9 0 -16 7 -16 15 0 8 7 15 15 15 17 0 20 16 6 24 -5 4 -16 3 -25 0 -21
-8 -22 -64 -1 -64 8 0 15 -7 15 -15 0 -13 -4 -14 -20 -5 -16 8 -18 8 -14 -4 3
-8 15 -16 27 -18 20 -3 19 -6 -13 -26 -41 -26 -70 -28 -70 -6 0 8 -5 12 -11 9
-6 -4 -8 -13 -5 -20 11 -29 -50 -28 -88 0 -14 11 -26 25 -26 31 0 6 -7 17 -15
24 -21 18 -11 27 38 35 23 3 69 19 102 35 168 80 185 86 185 75z m37 -47 c-3
-7 -5 -2 -5 12 0 14 2 19 5 13 2 -7 2 -19 0 -25z m-1517 -149 c68 -5 130 -15
137 -21 18 -14 16 -38 -2 -38 -8 0 -15 -4 -15 -10 0 -16 -47 -12 -54 5 -4 11
-14 13 -38 9 -24 -4 -29 -3 -18 5 18 12 13 17 -23 26 -21 6 -27 4 -27 -10 0
-10 5 -14 13 -9 9 5 9 4 1 -6 -18 -18 -225 -11 -299 11 -16 4 -56 16 -87 25
-32 9 -55 20 -52 25 6 10 289 3 464 -12z m-3840 -3 c0 -2 -16 -14 -37 -26 -26
-15 -38 -18 -43 -10 -6 9 -13 9 -31 0 -19 -10 -22 -10 -12 0 6 7 28 14 49 17
20 2 44 8 53 13 18 11 21 12 21 6z m-120 -65 c0 -19 -12 -41 -20 -36 -4 3 -10
-3 -12 -13 -4 -12 0 -19 10 -19 8 0 17 9 20 19 2 10 8 15 13 12 5 -3 9 4 9 16
0 12 4 19 9 16 5 -4 12 0 14 6 4 8 6 7 6 -4 1 -9 10 -20 21 -23 11 -3 20 -15
20 -25 0 -15 -6 -17 -29 -14 -16 3 -32 0 -36 -6 -4 -6 -1 -9 5 -8 8 2 39 -58
40 -79 0 -8 -90 -2 -94 6 -3 4 -1 22 4 40 5 19 5 31 -1 31 -5 0 -9 -7 -9 -16
0 -8 -4 -13 -9 -10 -5 4 -7 -2 -4 -13 3 -11 -2 -21 -11 -24 -9 -4 -16 -2 -16
2 0 5 6 12 13 14 7 3 5 6 -5 6 -24 1 -23 4 14 72 30 54 48 73 48 50z m5667
-37 c-3 -3 -12 -4 -19 -1 -8 3 -5 6 6 6 11 1 17 -2 13 -5z m48 -145 c11 -16 1
-19 -13 -3 -7 8 -8 14 -3 14 5 0 13 -5 16 -11z m-24 -16 c13 -16 12 -17 -3 -4
-17 13 -22 21 -14 21 2 0 10 -8 17 -17z m-15 -30 c21 -28 16 -39 -6 -15 -11
12 -20 24 -20 27 0 11 13 4 26 -12z m-2959 -309 c-3 -3 -12 -4 -19 -1 -8 3 -5
6 6 6 11 1 17 -2 13 -5z"/>
<path d="M4616 4145 c-3 -8 -1 -15 4 -15 6 0 10 7 10 15 0 8 -2 15 -4 15 -2 0
-6 -7 -10 -15z"/>
<path d="M5570 3900 c0 -5 4 -10 9 -10 6 0 13 5 16 10 3 6 -1 10 -9 10 -9 0
-16 -4 -16 -10z"/>
<path d="M5090 3050 c0 -5 5 -10 10 -10 6 0 10 5 10 10 0 6 -4 10 -10 10 -5 0
-10 -4 -10 -10z"/>
<path d="M7751 2507 c-1 -20 34 -36 62 -29 14 4 16 7 5 13 -7 5 -23 9 -35 9
-12 0 -24 6 -26 13 -3 7 -6 5 -6 -6z"/>
<path d="M8193 2543 c9 -2 23 -2 30 0 6 3 -1 5 -18 5 -16 0 -22 -2 -12 -5z"/>
<path d="M7136 1753 c-3 -4 -6 -15 -6 -25 0 -19 25 -25 35 -8 7 12 -20 42 -29
33z"/>
<path d="M7860 1712 c1 -17 19 -34 29 -28 18 12 13 32 -9 33 -11 1 -20 -1 -20
-5z"/>
<path d="M6850 1600 c0 -111 37 -174 65 -112 5 12 15 22 22 22 9 0 13 15 13
45 0 33 -4 45 -15 45 -10 0 -15 11 -15 35 0 19 -4 35 -10 35 -6 0 -10 -32 -10
-75 0 -43 -4 -75 -10 -75 -6 0 -10 26 -10 59 0 63 -6 91 -21 91 -5 0 -9 -32
-9 -70z"/>
<path d="M6972 1575 c3 -92 20 -135 26 -67 2 17 7 32 12 32 19 0 31 42 24 85
-6 42 -9 45 -35 45 l-30 0 3 -95z m48 29 c0 -8 -7 -14 -15 -14 -15 0 -21 21
-9 33 10 9 24 -2 24 -19z"/>
<path d="M7050 1655 c0 -9 12 -18 30 -21 29 -6 29 -7 23 -53 -3 -25 -10 -47
-15 -49 -13 -6 -9 -39 6 -45 10 -4 15 6 19 36 4 23 11 62 16 87 5 25 7 48 5
52 -3 5 -23 8 -45 8 -28 0 -39 -4 -39 -15z"/>
<path d="M7157 1657 c-2 -7 -2 -51 2 -97 6 -79 8 -85 29 -88 13 -2 30 2 38 8
15 13 19 75 5 84 -4 3 -6 17 -4 31 3 13 2 36 -1 50 -5 19 -13 25 -35 25 -16 0
-31 -6 -34 -13z m43 -47 c0 -11 -7 -20 -15 -20 -8 0 -15 9 -15 20 0 11 7 20
15 20 8 0 15 -9 15 -20z m20 -67 c0 -2 -6 -10 -13 -17 -10 -11 -15 -10 -26 2
-11 11 -11 16 -1 22 13 8 40 3 40 -7z"/>
<path d="M7430 1565 c0 -98 1 -105 20 -105 16 0 20 7 20 35 0 22 6 38 15 41 8
4 15 13 15 20 0 8 -7 17 -15 20 -8 4 -15 13 -15 20 0 8 7 17 15 20 8 4 15 17
15 30 0 21 -5 24 -35 24 l-35 0 0 -105z"/>
<path d="M7525 1651 c-3 -12 -3 -62 1 -111 7 -90 7 -90 34 -90 22 0 30 6 39
31 21 60 5 179 -24 179 -7 0 -20 3 -28 6 -10 3 -18 -2 -22 -15z m45 -91 c0
-38 -4 -50 -15 -50 -11 0 -15 12 -15 50 0 38 4 50 15 50 11 0 15 -12 15 -50z"/>
<path d="M7823 1647 c-26 -13 -39 -89 -29 -161 6 -36 11 -45 32 -50 38 -10 44
0 44 70 0 50 -3 64 -15 64 -9 0 -15 9 -15 21 0 18 2 20 16 8 14 -11 15 -9 12
21 -3 37 -13 43 -45 27z m24 -154 c-3 -10 -5 -2 -5 17 0 19 2 27 5 18 2 -10 2
-26 0 -35z"/>
<path d="M7900 1625 c-13 -35 -16 -82 -7 -142 8 -58 14 -65 45 -57 39 11 56
119 30 191 -15 42 -53 46 -68 8z m30 -85 c0 -33 -4 -60 -10 -60 -6 0 -10 27
-10 60 0 33 4 60 10 60 6 0 10 -27 10 -60z"/>
<path d="M8002 1615 c-31 -67 -3 -225 34 -194 21 17 19 139 -1 139 -9 0 -15 9
-15 21 0 18 2 20 16 8 14 -11 15 -9 12 16 -4 38 -31 44 -46 10z m28 -117 c0
-23 -3 -29 -11 -21 -6 6 -8 20 -4 32 9 30 15 26 15 -11z"/>
<path d="M8114 1605 c-26 -64 -12 -195 22 -195 21 0 35 46 36 115 0 63 -14
115 -32 115 -6 0 -18 -16 -26 -35z m36 -79 c0 -30 -4 -58 -10 -61 -6 -4 -10
17 -10 54 0 34 4 61 10 61 6 0 10 -24 10 -54z"/>
<path d="M6548 913 c7 -3 16 -2 19 1 4 3 -2 6 -13 5 -11 0 -14 -3 -6 -6z"/>
<path d="M7758 773 c7 -3 16 -2 19 1 4 3 -2 6 -13 5 -11 0 -14 -3 -6 -6z"/>
<path d="M9290 820 c0 -5 5 -10 10 -10 6 0 10 5 10 10 0 6 -4 10 -10 10 -5 0
-10 -4 -10 -10z"/>
<path d="M9246 801 c-18 -7 -18 -8 -3 -14 9 -3 17 -16 17 -27 0 -11 4 -20 8
-20 4 0 6 16 4 35 -2 19 -5 35 -6 34 0 0 -10 -4 -20 -8z"/>
<path d="M9158 782 c-10 -2 -18 -8 -18 -13 0 -12 13 -12 26 1 7 7 9 1 6 -20
-4 -27 -2 -30 22 -30 14 0 26 5 26 11 0 6 -7 8 -16 5 -13 -5 -15 -2 -11 13 6
24 -11 39 -35 33z"/>
<path d="M9290 775 c0 -8 5 -15 10 -15 6 0 10 7 10 15 0 8 -4 15 -10 15 -5 0
-10 -7 -10 -15z"/>
<path d="M9205 700 c27 -12 35 -12 35 0 0 6 -12 10 -27 9 -25 0 -26 -1 -8 -9z"/>
<path d="M4060 6840 c20 -13 43 -13 35 0 -3 6 -16 10 -28 10 -18 0 -19 -2 -7
-10z"/>
<path d="M4170 6840 c0 -5 4 -10 9 -10 6 0 13 5 16 10 3 6 -1 10 -9 10 -9 0
-16 -4 -16 -10z"/>
<path d="M9568 5313 c6 -2 18 -2 25 0 6 3 1 5 -13 5 -14 0 -19 -2 -12 -5z"/>
<path d="M11500 4409 c0 -5 -5 -9 -12 -9 -6 0 -36 -12 -67 -26 -30 -15 -67
-30 -81 -35 -132 -43 -155 -55 -158 -82 -2 -15 1 -27 7 -27 16 0 25 21 12 29
-11 7 48 41 71 41 5 0 50 18 99 40 49 22 97 40 107 40 9 1 31 7 47 14 l30 13
-27 5 c-16 3 -28 1 -28 -3z"/>
<path d="M11574 4397 c-46 -22 -145 -58 -257 -94 -26 -8 -45 -18 -42 -23 3 -4
-4 -6 -15 -3 -11 3 -20 0 -20 -6 0 -15 25 -14 83 4 26 8 76 19 110 26 34 6 69
13 77 14 8 2 18 4 23 4 4 1 7 10 7 20 0 11 4 22 9 25 5 4 7 -3 4 -14 -6 -24
-9 -24 52 -1 40 15 51 24 53 45 4 34 -17 34 -84 3z"/>
<path d="M11388 4266 c-21 -7 -40 -12 -43 -10 -3 2 -1 -1 4 -7 11 -13 81 6 81
22 0 11 4 11 -42 -5z"/>
<path d="M11710 3960 c0 -5 7 -10 15 -10 8 0 19 -9 25 -20 6 -11 16 -17 25
-14 20 8 19 24 -1 24 -8 0 -22 7 -30 15 -18 17 -34 20 -34 5z"/>
<path d="M11851 3920 c-9 -5 -5 -9 10 -13 28 -7 31 -6 14 10 -6 6 -18 8 -24 3z"/>
<path d="M11975 3840 c3 -5 13 -10 21 -10 8 0 14 5 14 10 0 6 -9 10 -21 10
-11 0 -17 -4 -14 -10z"/>
<path d="M9778 3761 c-5 -53 -55 -161 -74 -161 -16 0 -84 -71 -78 -81 2 -4 15
3 29 17 26 26 65 32 65 10 0 -8 -5 -16 -12 -18 -16 -6 -13 -88 2 -98 11 -7 25
-50 37 -112 6 -31 11 -33 47 -17 17 8 25 19 23 33 -1 12 5 22 15 24 13 2 18
-6 21 -35 l4 -38 1 43 c1 25 9 50 18 60 13 13 15 31 12 91 -3 43 -10 77 -17
79 -6 2 -11 11 -11 21 0 10 -8 17 -19 17 -20 0 -18 -24 3 -38 8 -5 7 -11 -1
-19 -8 -8 -14 -2 -24 25 -7 20 -19 36 -25 36 -15 0 -28 53 -19 80 5 15 12 19
26 15 17 -6 19 -1 19 35 0 42 -14 80 -29 80 -5 0 -11 -22 -13 -49z m27 -441
c-3 -5 -12 -10 -18 -10 -7 0 -6 4 3 10 19 12 23 12 15 0z"/>
<path d="M12310 3716 c-12 -34 -13 -46 -1 -46 11 0 26 59 17 67 -3 3 -10 -6
-16 -21z"/>
<path d="M9575 3470 c-3 -5 1 -10 9 -10 9 0 16 5 16 10 0 6 -4 10 -9 10 -6 0
-13 -4 -16 -10z"/>
<path d="M9390 3390 c-25 -16 -41 -30 -36 -30 10 0 86 50 86 56 0 7 -4 5 -50
-26z"/>
<path d="M9681 3404 c0 -11 3 -14 6 -6 3 7 2 16 -1 19 -3 4 -6 -2 -5 -13z"/>
<path d="M5933 3393 c-15 -5 -17 -23 -4 -23 5 0 11 7 15 15 3 8 4 15 3 14 -1
0 -8 -3 -14 -6z"/>
<path d="M9700 3376 c0 -8 -3 -21 -6 -30 -4 -11 -1 -16 10 -16 11 0 16 9 16
30 0 17 -4 30 -10 30 -5 0 -10 -6 -10 -14z"/>
<path d="M10030 3356 c0 -13 5 -26 11 -28 8 -3 37 -294 39 -390 0 -10 7 -18
16 -18 14 0 15 -8 10 -54 -5 -34 -3 -56 3 -61 6 -3 11 -26 11 -51 0 -35 3 -42
13 -33 16 15 5 203 -17 304 -9 39 -16 89 -16 113 0 23 -4 42 -9 42 -5 0 -14
37 -21 83 -6 45 -14 90 -17 100 -7 25 -23 21 -23 -7z"/>
<path d="M9643 3282 c-1 -64 0 -70 7 -37 11 51 12 115 3 115 -5 0 -9 -35 -10
-78z"/>
<path d="M9938 3295 c-3 -6 -9 -34 -13 -62 -4 -29 -11 -53 -15 -53 -6 0 -30
-52 -30 -66 0 -2 9 5 20 16 17 17 25 36 34 81 2 8 6 26 10 41 8 29 4 59 -6 43z"/>
<path d="M9788 3273 c7 -3 16 -2 19 1 4 3 -2 6 -13 5 -11 0 -14 -3 -6 -6z"/>
<path d="M9754 3259 c-7 -12 17 -32 26 -22 3 3 -1 8 -8 10 -6 3 -10 9 -6 14 3
5 3 9 0 9 -3 0 -8 -5 -12 -11z"/>
<path d="M9835 3260 c3 -5 8 -10 11 -10 2 0 4 5 4 10 0 6 -5 10 -11 10 -5 0
-7 -4 -4 -10z"/>
<path d="M9700 3241 c0 -11 5 -23 10 -26 6 -3 10 3 10 15 0 13 4 19 12 14 7
-4 8 -3 4 4 -12 19 -36 14 -36 -7z"/>
<path d="M6090 3225 c0 -14 5 -25 10 -25 6 0 10 11 10 25 0 14 -4 25 -10 25
-5 0 -10 -11 -10 -25z"/>
<path d="M9803 3226 c-12 -13 -28 -28 -36 -32 -8 -5 -19 -35 -24 -67 l-10 -59
23 29 c13 15 30 35 37 43 13 14 40 101 33 107 -1 2 -12 -8 -23 -21z"/>
<path d="M6127 3233 c-11 -10 -8 -63 3 -63 6 0 10 16 10 35 0 36 -2 40 -13 28z"/>
<path d="M9436 3190 c-4 -24 -12 -40 -20 -40 -16 0 -25 -19 -19 -38 4 -9 9
-10 18 -2 9 8 14 6 17 -8 4 -13 0 -19 -11 -18 -11 1 -18 -10 -22 -34 l-6 -35
-2 33 c0 17 -5 32 -10 32 -13 0 -24 -55 -16 -80 4 -14 1 -28 -10 -40 -25 -28
-3 -32 61 -10 33 12 61 20 62 19 2 0 6 2 10 5 3 3 0 6 -6 6 -8 0 -12 18 -12
49 0 32 -6 55 -16 66 -13 13 -15 28 -10 76 8 66 2 80 -8 19z m-46 -224 c0 -2
-8 -10 -17 -17 -16 -13 -17 -12 -4 4 13 16 21 21 21 13z"/>
<path d="M9660 3190 c0 -11 5 -20 10 -20 6 0 10 9 10 20 0 11 -4 20 -10 20 -5
0 -10 -9 -10 -20z"/>
<path d="M6157 3181 c3 -12 12 -21 20 -21 20 0 12 34 -9 38 -12 2 -15 -2 -11
-17z"/>
<path d="M9700 3180 c0 -5 5 -10 10 -10 6 0 10 5 10 10 0 6 -4 10 -10 10 -5 0
-10 -4 -10 -10z"/>
<path d="M9481 3103 c0 -43 3 -73 9 -73 12 0 12 36 1 100 -8 43 -9 41 -10 -27z"/>
<path d="M9685 3106 c-23 -24 -26 -37 -15 -51 15 -18 30 -11 30 13 0 15 -2 15
-11 2 -9 -12 -10 -12 -5 3 3 10 6 20 6 23 0 2 8 1 18 -2 10 -4 13 -2 7 3 -5 4
-12 11 -15 15 -3 3 -10 1 -15 -6z"/>
<path d="M9819 3043 c-13 -17 -13 -17 6 -3 11 8 22 16 24 17 2 2 0 3 -6 3 -6
0 -17 -8 -24 -17z"/>
<path d="M9288 2933 c7 -3 16 -2 19 1 4 3 -2 6 -13 5 -11 0 -14 -3 -6 -6z"/>
<path d="M11700 2883 c8 -2 24 -8 35 -13 41 -19 133 -37 145 -30 15 9 4 13
-100 35 -72 14 -111 19 -80 8z"/>
<path d="M7448 2803 c18 -2 45 -2 60 0 15 2 0 4 -33 4 -33 0 -45 -2 -27 -4z"/>
<path d="M7640 2790 c0 -5 5 -10 10 -10 6 0 10 5 10 10 0 6 -4 10 -10 10 -5 0
-10 -4 -10 -10z"/>
<path d="M6888 2673 c7 -3 16 -2 19 1 4 3 -2 6 -13 5 -11 0 -14 -3 -6 -6z"/>
<path d="M6983 2663 c9 -2 23 -2 30 0 6 3 -1 5 -18 5 -16 0 -22 -2 -12 -5z"/>
<path d="M7134 2633 c-7 -24 -5 -33 4 -33 11 0 22 50 10 50 -5 0 -12 -8 -14
-17z"/>
<path d="M6070 2580 c15 -16 34 -30 42 -30 7 0 -3 14 -22 30 -45 38 -56 38
-20 0z"/>
<path d="M6490 2579 c0 -5 5 -7 10 -4 6 3 10 8 10 11 0 2 -4 4 -10 4 -5 0 -10
-5 -10 -11z"/>
<path d="M7178 2573 c7 -3 16 -2 19 1 4 3 -2 6 -13 5 -11 0 -14 -3 -6 -6z"/>
<path d="M8645 2569 c-4 -6 -5 -12 -2 -15 2 -3 7 2 10 11 7 17 1 20 -8 4z"/>
<path d="M7080 2550 c152 -22 170 -23 170 -11 0 6 -15 11 -32 11 -18 0 -69 2
-113 4 -69 3 -73 3 -25 -4z"/>
<path d="M11655 2540 c3 -5 8 -10 11 -10 2 0 4 5 4 10 0 6 -5 10 -11 10 -5 0
-7 -4 -4 -10z"/>
<path d="M7225 2490 c3 -5 13 -10 21 -10 8 0 14 5 14 10 0 6 -9 10 -21 10 -11
0 -17 -4 -14 -10z"/>
<path d="M8650 2460 c8 -5 22 -9 30 -9 10 0 8 3 -5 9 -27 12 -43 12 -25 0z"/>
<path d="M8620 2390 c0 -5 5 -10 11 -10 5 0 7 5 4 10 -3 6 -8 10 -11 10 -2 0
-4 -4 -4 -10z"/>
<path d="M5371 2354 c0 -11 3 -14 6 -6 3 7 2 16 -1 19 -3 4 -6 -2 -5 -13z"/>
<path d="M5391 2354 c0 -11 3 -14 6 -6 3 7 2 16 -1 19 -3 4 -6 -2 -5 -13z"/>
<path d="M11846 2283 c-11 -11 -6 -23 9 -23 8 0 15 4 15 9 0 13 -16 22 -24 14z"/>
<path d="M12170 2173 c-8 -2 -22 -7 -30 -10 -8 -4 -19 -5 -25 -4 -5 1 -5 -3 2
-10 10 -9 21 -9 55 4 24 8 52 18 63 20 11 3 4 5 -15 5 -19 0 -42 -2 -50 -5z"/>
<path d="M5600 2136 c0 -9 5 -16 10 -16 6 0 10 4 10 9 0 6 -4 13 -10 16 -5 3
-10 -1 -10 -9z"/>
<path d="M11417 2079 c4 -15 8 -17 14 -8 8 14 3 29 -11 29 -4 0 -6 -9 -3 -21z"/>
<path d="M12135 2050 c3 -5 13 -10 21 -10 8 0 12 5 9 10 -3 6 -13 10 -21 10
-8 0 -12 -4 -9 -10z"/>
<path d="M12353 2053 c9 -2 23 -2 30 0 6 3 -1 5 -18 5 -16 0 -22 -2 -12 -5z"/>
<path d="M12415 2050 c-3 -5 -2 -10 4 -10 5 0 13 5 16 10 3 6 2 10 -4 10 -5 0
-13 -4 -16 -10z"/>
<path d="M11583 2023 c15 -2 37 -2 50 0 12 2 0 4 -28 4 -27 0 -38 -2 -22 -4z"/>
<path d="M11873 1969 c-6 -6 -22 -11 -35 -11 -23 0 -24 -2 -14 -34 6 -18 13
-29 16 -24 3 4 16 10 30 11 20 3 26 11 28 37 3 33 -6 40 -25 21z"/>
<path d="M9825 1963 c-40 -5 -72 -22 -79 -42 -6 -19 -26 -49 -43 -69 -7 -7
-16 -31 -19 -53 -4 -21 -10 -39 -14 -39 -4 0 -10 -17 -13 -37 -3 -21 -9 -53
-13 -71 -8 -40 7 -73 56 -119 38 -37 59 -40 110 -15 67 33 109 67 127 104 10
20 25 39 34 41 26 7 44 131 30 199 -14 63 -17 68 -58 91 -30 16 -53 18 -118
10z m25 -137 c0 -8 -5 -16 -12 -18 -6 -2 -13 -31 -16 -66 -4 -51 -7 -62 -22
-62 -40 0 -50 11 -50 56 0 42 1 44 30 44 19 0 33 6 35 15 3 8 7 22 10 30 6 19
25 20 25 1z m-105 -46 c-3 -5 -6 -31 -6 -59 -1 -43 -5 -51 -20 -51 -16 0 -19
8 -19 45 0 27 6 52 17 64 16 19 39 19 28 1z m139 9 c21 17 40 -5 39 -45 -1
-50 -26 -65 -34 -21 -5 23 -7 26 -8 9 0 -13 -5 -20 -11 -17 -7 4 -9 -3 -5 -22
5 -21 4 -24 -4 -13 -14 19 -14 80 -1 80 6 0 10 5 10 11 0 5 -4 7 -10 4 -6 -4
-7 1 -3 11 4 12 8 14 11 6 3 -9 8 -10 16 -3z m-75 -135 c2 -2 2 -6 -1 -9 -9
-9 -58 6 -58 17 0 9 49 3 59 -8z m-1 -91 c-10 -2 -28 -2 -40 0 -13 2 -5 4 17
4 22 1 32 -1 23 -4z"/>
<path d="M11907 1926 c-3 -8 0 -17 7 -19 18 -7 40 8 32 22 -10 16 -33 14 -39
-3z"/>
<path d="M11976 1924 c-10 -26 -7 -32 16 -40 26 -8 55 -34 38 -34 -6 0 -8 -5
-5 -10 5 -8 11 -7 21 1 8 6 14 9 14 5 0 -3 8 2 18 12 12 12 14 20 7 28 -5 7
-13 10 -17 8 -4 -2 -13 5 -21 17 -11 15 -16 17 -20 7 -5 -10 -9 -9 -17 5 -14
21 -26 22 -34 1z"/>
<path d="M5920 1710 c0 -5 9 -10 20 -10 32 0 100 -31 100 -46 0 -8 5 -14 10
-14 6 0 11 -17 12 -37 l1 -38 4 33 c6 44 -16 75 -70 101 -47 23 -77 27 -77 11z"/>
<path d="M11570 1680 c0 -5 19 -10 43 -9 36 1 38 2 17 9 -36 12 -60 12 -60 0z"/>
<path d="M5847 1620 c3 -11 9 -20 14 -20 5 0 9 9 9 20 0 11 -6 20 -14 20 -9 0
-12 -7 -9 -20z"/>
<path d="M11250 1630 c0 -5 5 -10 10 -10 6 0 10 5 10 10 0 6 -4 10 -10 10 -5
0 -10 -4 -10 -10z"/>
<path d="M5881 1597 c2 -2 11 -8 20 -15 12 -9 16 -9 16 1 0 7 -9 14 -20 14
-11 1 -18 1 -16 0z"/>
<path d="M11451 1578 c-1 -12 6 -18 19 -18 11 0 20 5 20 11 0 6 -6 9 -14 6 -8
-3 -17 -1 -20 6 -2 7 -5 4 -5 -5z"/>
<path d="M6032 1534 c9 -9 21 -15 27 -13 6 2 -2 10 -17 17 -25 11 -25 11 -10
-4z"/>
<path d="M11702 1541 c-20 -12 33 -21 67 -11 20 7 22 8 6 9 -11 1 -29 4 -40 6
-11 3 -26 1 -33 -4z"/>
<path d="M10610 1490 c0 -5 5 -10 11 -10 5 0 7 5 4 10 -3 6 -8 10 -11 10 -2 0
-4 -4 -4 -10z"/>
<path d="M11366 1491 c-4 -5 3 -7 14 -4 23 6 26 13 6 13 -8 0 -17 -4 -20 -9z"/>
<path d="M11367 1463 c-3 -5 1 -14 9 -21 8 -7 14 -10 14 -7 0 5 30 -18 60 -46
9 -9 30 -19 45 -23 24 -6 26 -5 12 8 -8 8 -21 17 -28 18 -7 2 -29 20 -48 41
-33 35 -55 46 -64 30z"/>
<path d="M11536 1347 c3 -10 9 -15 12 -12 3 3 0 11 -7 18 -10 9 -11 8 -5 -6z"/>
<path d="M10665 1340 c-3 -5 1 -10 10 -10 9 0 13 5 10 10 -3 6 -8 10 -10 10
-2 0 -7 -4 -10 -10z"/>
<path d="M11581 1304 c13 -16 29 -19 29 -5 0 5 -9 11 -21 14 -16 4 -18 3 -8
-9z"/>
<path d="M6810 1246 c0 -2 7 -7 16 -10 8 -3 12 -2 9 4 -6 10 -25 14 -25 6z"/>
<path d="M10700 1050 c0 -5 7 -10 15 -10 8 0 15 5 15 10 0 6 -7 10 -15 10 -8
0 -15 -4 -15 -10z"/>
<path d="M10278 953 c7 -3 16 -2 19 1 4 3 -2 6 -13 5 -11 0 -14 -3 -6 -6z"/>
<path d="M10113 864 c-7 -7 -13 -18 -13 -24 0 -7 -6 -8 -19 0 -24 12 -42 13
-22 1 8 -5 14 -22 14 -38 0 -17 6 -30 13 -30 7 0 10 6 7 14 -4 9 0 11 13 7 47
-15 64 -28 64 -50 0 -13 6 -29 14 -36 11 -11 11 -15 -3 -25 -14 -12 -14 -12 2
-7 10 4 17 1 17 -6 0 -6 7 -18 15 -26 8 -9 15 -19 15 -24 0 -5 -7 -7 -15 -4
-8 4 -15 11 -15 17 0 7 -4 7 -12 -1 -14 -14 -11 -17 25 -26 26 -6 27 -5 27 29
0 31 3 35 26 35 14 0 23 4 19 10 -3 6 -1 10 4 10 6 0 11 8 11 18 0 14 2 15 10
2 6 -9 10 -10 10 -3 0 8 9 9 30 3 34 -10 47 2 25 23 -8 9 -15 27 -15 41 0 27
15 35 23 14 4 -10 6 -10 6 0 1 6 8 12 16 12 8 0 15 5 15 10 0 6 -5 10 -11 10
-6 0 -17 7 -25 15 -9 8 -26 15 -39 15 -13 0 -31 3 -40 6 -11 5 -16 2 -15 -7 5
-32 0 -40 -17 -31 -10 5 -29 8 -42 6 -28 -5 -99 24 -103 42 -2 9 -6 9 -15 -2z
m127 -78 c0 -3 -4 -8 -10 -11 -5 -3 -10 -1 -10 4 0 6 5 11 10 11 6 0 10 -2 10
-4z m80 -32 c0 -22 -18 -25 -25 -4 -3 11 -11 20 -16 20 -5 0 -9 4 -9 10 0 6
10 5 25 -2 14 -6 25 -17 25 -24z"/>
<path d="M10137 714 c3 -8 11 -14 19 -14 21 0 17 17 -5 23 -14 3 -18 1 -14 -9z"/>
<path d="M10830 710 c0 -12 -2 -11 93 -35 37 -10 73 -23 80 -29 16 -16 41 -25
105 -41 65 -16 56 -3 -10 15 -27 7 -48 16 -48 20 0 8 -10 13 -125 54 -77 28
-95 31 -95 16z"/>
<path d="M10040 685 c7 -9 16 -12 19 -8 4 4 10 11 15 16 5 4 -3 7 -19 7 -24 0
-26 -2 -15 -15z"/>
<path d="M9930 684 c0 -11 29 -34 44 -34 9 0 16 -6 16 -14 0 -8 6 -16 13 -19
20 -7 15 34 -5 55 -17 16 -68 26 -68 12z"/>
<path d="M10250 640 c0 -5 5 -10 10 -10 6 0 10 5 10 10 0 6 -4 10 -10 10 -5 0
-10 -4 -10 -10z"/>
<path d="M10080 590 c0 -5 5 -10 10 -10 6 0 10 5 10 10 0 6 -4 10 -10 10 -5 0
-10 -4 -10 -10z"/>
<path d="M10110 580 c0 -5 5 -10 10 -10 6 0 10 5 10 10 0 6 -4 10 -10 10 -5 0
-10 -4 -10 -10z"/>
<path d="M9450 560 c0 -23 25 -27 33 -6 7 16 -1 26 -20 26 -7 0 -13 -9 -13
-20z"/>
<path d="M9880 544 c0 -11 28 -33 34 -27 3 4 6 1 6 -5 0 -7 7 -12 15 -12 8 0
15 -4 15 -10 0 -5 10 -10 23 -9 l22 0 -21 9 c-12 5 -25 13 -28 19 -7 11 -66
42 -66 35z"/>
<path d="M9775 509 c5 -15 4 -19 -4 -15 -13 8 -14 -4 -2 -23 13 -20 36 -1 36
32 1 20 -4 27 -18 27 -14 0 -17 -5 -12 -21z"/>
<path d="M11794 151 c21 -23 26 -26 26 -11 0 5 -10 15 -22 21 -23 12 -23 12
-4 -10z"/>
<path d="M9528 3 c6 -2 18 -2 25 0 6 3 1 5 -13 5 -14 0 -19 -2 -12 -5z"/>
</g>
</svg>
